<?xml version="1.0" encoding="UTF-8" standalone="no"?>
<svg
   xmlns:dc="http://purl.org/dc/elements/1.1/"
   xmlns:cc="http://creativecommons.org/ns#"
   xmlns:rdf="http://www.w3.org/1999/02/22-rdf-syntax-ns#"
   xmlns:svg="http://www.w3.org/2000/svg"
   xmlns="http://www.w3.org/2000/svg"
   xmlns:sodipodi="http://sodipodi.sourceforge.net/DTD/sodipodi-0.dtd"
   xmlns:inkscape="http://www.inkscape.org/namespaces/inkscape"
   version="1.1"
   id="svg2"
   viewBox="0 0 396.44354 380.78164"
   height="107.46504mm"
   width="111.88518mm"
   inkscape:version="0.91 r13725"
   sodipodi:docname="active-by genre-icon.svg">
  <sodipodi:namedview
     pagecolor="#ffffff"
     bordercolor="#666666"
     borderopacity="1"
     objecttolerance="10"
     gridtolerance="10"
     guidetolerance="10"
     inkscape:pageopacity="0"
     inkscape:pageshadow="2"
     inkscape:window-width="1474"
     inkscape:window-height="841"
     id="namedview4271"
     showgrid="false"
     inkscape:zoom="0.30988889"
     inkscape:cx="159.02706"
     inkscape:cy="-171.18924"
     inkscape:window-x="54"
     inkscape:window-y="-8"
     inkscape:window-maximized="1"
     inkscape:current-layer="svg2" />
  <defs
     id="defs4" />
  <metadata
     id="metadata7">
    <rdf:RDF>
      <cc:Work
         rdf:about="">
        <dc:format>image/svg+xml</dc:format>
        <dc:type
           rdf:resource="http://purl.org/dc/dcmitype/StillImage" />
        <dc:title></dc:title>
      </cc:Work>
    </rdf:RDF>
  </metadata>
  <path
     style="opacity:1;fill:#be000f;fill-opacity:1;stroke:none;stroke-width:8.30200005;stroke-linejoin:miter;stroke-miterlimit:4;stroke-dasharray:none;stroke-dashoffset:0;stroke-opacity:1"
     d="m -549.60565,275.30968 c -12.05509,-19.46464 -15.8294,-56.48153 -15.8294,-155.2494 0,-178.901823 -3.3323,-175.69057 182.29613,-175.69057 140.88479,0 141.73131,0.158004 162.69665,30.301187 18.32287,26.3431479 21.07528,46.285025 21.07528,152.690253 0,178.61628 5.38947,173.50723 -183.03373,173.50723 -144.89983,0 -152.05264,-1.09345 -167.20493,-25.5587 z m 297.56102,-52.06598 c 3.22739,-25.70077 2.35542,-25.87489 -129.6493,-25.87489 -122.09203,0 -132.8983,1.71427 -132.8983,21.08323 0,11.59584 3.18417,24.68443 7.076,29.0857 3.89183,4.40146 62.2339,6.5577 129.64924,4.79167 118.38132,-3.10103 122.68433,-4.09563 125.82236,-29.08571 z m 0,-97.74957 c -3.17161,-25.25729 -6.28364,-25.87483 -130.35609,-25.87483 -124.07309,0 -127.18475,0.61748 -130.35663,25.87483 -3.2282,25.70684 -2.38147,25.87489 130.35663,25.87489 132.73751,0 133.58457,-0.16812 130.35609,-25.87489 z m 0,-97.74964 c 3.22739,-25.7007711 2.35542,-25.8748271 -129.6493,-25.8748271 l -132.8983,0 0,29.0934711 0,29.093479 129.64924,-3.21865 c 125.71891,-3.12094 129.74733,-4.00291 132.89836,-29.093473 z"
     id="path6521"
     inkscape:connector-curvature="0" />
  <g
     id="g5379"
     transform="matrix(0.70446112,0,0,0.79188831,319.71737,-462.12474)">
    <path
       inkscape:connector-curvature="0"
       id="path5365"
       d="m -272.79807,934.06829 c -25.95051,-5.4091 -56.7208,-23.26287 -80.68547,-46.81594 -36.13814,-35.51746 -51.40873,-71.85354 -63.90146,-152.05233 -5.87962,-37.74506 -6.35148,-56.36541 -1.83015,-72.2216 6.12791,-21.49047 4.30005,-20.87117 61.94273,-20.98699 59.69094,-0.11995 91.11509,-6.22898 134.52016,-26.15147 28.66887,-13.15872 36.92737,-13.59764 47.2042,-2.50879 23.8672,25.75319 44.6935,147.73445 33.9822,199.03685 -5.7002,27.30153 -26.431,66.29842 -46.1098,86.73749 -29.54317,30.68451 -55.16298,41.20747 -85.12241,34.96278 z m 39.46063,-62.92896 c 8.88,-4.42509 19.0798,-12.04879 22.66623,-16.94156 6.09165,-8.31047 14.08694,-27.36924 14.08694,-33.5797 0,-4.45657 -8.56582,-3.13681 -12.80672,1.97316 -5.88171,7.08702 -36.45359,17.55718 -61.73468,21.14268 -20.90457,2.9648 -36.74964,1.48782 -52.1169,-4.85801 -17.55049,-7.24738 6.99849,27.99053 24.94896,35.81205 16.63103,7.2466 46.57585,5.61069 64.95617,-3.54862 z m -67.32698,-113.50859 c 5.76445,-7.88336 5.02077,-15.09345 -2.54946,-24.71744 -9.56461,-12.15943 -25.29707,-14.1708 -43.16909,-5.51911 -23.31155,11.28493 -22.98426,30.1905 0.59087,34.132 6.63404,1.10914 13.51403,2.57569 15.28886,3.25901 6.92598,2.66654 26.00202,-1.90733 29.83882,-7.15446 z m 84.09688,-16.23656 c 25.18623,-12.74307 30.02729,-27.62597 11.70199,-35.97553 -30.55491,-13.92175 -67.90223,16.45271 -47.69044,38.78649 7.31116,8.07874 15.77139,7.41794 35.98845,-2.81096 z"
       style="opacity:1;fill:#be000f;fill-opacity:1;stroke:#be000f;stroke-width:6.45392609;stroke-linejoin:miter;stroke-miterlimit:4;stroke-dasharray:none;stroke-dashoffset:0;stroke-opacity:1" />
    <path
       inkscape:connector-curvature="0"
       id="path5367"
       d="m -101.38886,1030.7475 c -5.3245,-1.1234 -14.0373,-4.3139 -19.3618,-7.0899 -16.0901,-8.3888 -45.7688,-42.24189 -56.9994,-65.01636 l -10.57294,-21.44071 10.24344,-10.24343 10.2434,-10.24343 3.0264,7.95993 c 13.2561,34.86631 39.2813,69.14201 58.5631,77.1287 32.476705,13.4523 96.8258045,-19.27229 125.372005,-63.75771 16.6926,-26.01312 42.4474,-117.06839 42.4474,-150.07128 l 0,-11.13722 -34.6898,-1.87431 c -37.0098,-1.99966 -76.4324,-10.3349 -110.5235,-23.36832 -28.508005,-10.89894 -28.712505,-11.08503 -31.068905,-28.27677 l -2.0758,-15.14517 24.208305,11.18495 c 38.9513,17.99659 81.8253,27.84705 126.2605,29.00879 50.3248,1.31573 52.2636,2.92824 51.6852,42.98692 -0.5009,34.69026 -18.3091,106.76196 -35.1548,142.27532 -15.4445,32.55921 -48.8043005,65.88001 -82.2231,82.1269 -25.5352,12.4141 -53.2337,18.3999 -69.379705,14.9931 z"
       style="opacity:1;fill:#be000f;fill-opacity:1;stroke:#be000f;stroke-width:6.45392609;stroke-linejoin:miter;stroke-miterlimit:4;stroke-dasharray:none;stroke-dashoffset:0;stroke-opacity:1" />
    <path
       inkscape:connector-curvature="0"
       id="path5369"
       d="m -23.942955,865.1107 c -14.2744,-6.33744 -18.4774,-12.62732 -14.8367,-22.20321 5.827,-15.32604 21.3383,-16.13899 37.4821995,-1.96443 8.6507,7.5954 11.3284005,12.28258 10.5999,18.55504 -0.8219,7.0777 -2.7439,8.51143 -12.2689,9.15184 -6.2119,0.41765 -15.6513995,-1.17501 -20.9764995,-3.53924 z"
       style="opacity:1;fill:#be000f;fill-opacity:1;stroke:#be000f;stroke-width:6.45392609;stroke-linejoin:miter;stroke-miterlimit:4;stroke-dasharray:none;stroke-dashoffset:0;stroke-opacity:1" />
    <path
       inkscape:connector-curvature="0"
       id="path5375"
       d="m -111.53496,843.39356 -10.146,-2.93969 3.9823,-13.48742 c 4.2879,-14.52226 11.296,-19.24311 24.377205,-16.42122 12.0063,2.59 19.3618,10.42424 19.3618,20.62187 0,14.45259 -14.0798,19.03395 -37.575305,12.22646 z"
       style="opacity:1;fill:#be000f;fill-opacity:1;stroke:#be000f;stroke-width:6.45392609;stroke-linejoin:miter;stroke-miterlimit:4;stroke-dasharray:none;stroke-dashoffset:0;stroke-opacity:1" />
    <path
       inkscape:connector-curvature="0"
       id="path5377"
       d="m -38.463055,963.68909 c 0,-6.42697 -32.3275,-22.47198 -53.2186,-26.41386 -14.025705,-2.64644 -23.626805,-2.81042 -31.836105,-0.5437 -14.0585,3.88172 -14.7764,1.40237 -2.8801,-9.94659 22.9448,-21.88911 58.975205,-20.20902 79.082905,3.68762 8.365,9.94124 14.8769,30.89106 10.8527,34.91525 -1.1004,1.1004 -2.0008,0.336 -2.0008,-1.69872 z"
       style="opacity:1;fill:#be000f;fill-opacity:1;stroke:#be000f;stroke-width:6.45392609;stroke-linejoin:miter;stroke-miterlimit:4;stroke-dasharray:none;stroke-dashoffset:0;stroke-opacity:1" />
  </g>
</svg>
