<?xml version="1.0" encoding="UTF-8" standalone="no"?>
<svg
   xmlns:dc="http://purl.org/dc/elements/1.1/"
   xmlns:cc="http://creativecommons.org/ns#"
   xmlns:rdf="http://www.w3.org/1999/02/22-rdf-syntax-ns#"
   xmlns:svg="http://www.w3.org/2000/svg"
   xmlns="http://www.w3.org/2000/svg"
   xmlns:sodipodi="http://sodipodi.sourceforge.net/DTD/sodipodi-0.dtd"
   xmlns:inkscape="http://www.inkscape.org/namespaces/inkscape"
   version="1.1"
   id="svg2"
   viewBox="0 0 396.44354 380.78164"
   height="107.46504mm"
   width="111.88518mm"
   inkscape:version="0.91 r13725"
   sodipodi:docname="active-info-icon.svg">
  <sodipodi:namedview
     pagecolor="#ffffff"
     bordercolor="#666666"
     borderopacity="1"
     objecttolerance="10"
     gridtolerance="10"
     guidetolerance="10"
     inkscape:pageopacity="0"
     inkscape:pageshadow="2"
     inkscape:window-width="1474"
     inkscape:window-height="841"
     id="namedview4271"
     showgrid="false"
     inkscape:zoom="0.61977777"
     inkscape:cx="-277.75529"
     inkscape:cy="190.39082"
     inkscape:window-x="54"
     inkscape:window-y="-8"
     inkscape:window-maximized="1"
     inkscape:current-layer="svg2" />
  <defs
     id="defs4" />
  <metadata
     id="metadata7">
    <rdf:RDF>
      <cc:Work
         rdf:about="">
        <dc:format>image/svg+xml</dc:format>
        <dc:type
           rdf:resource="http://purl.org/dc/dcmitype/StillImage" />
        <dc:title></dc:title>
      </cc:Work>
    </rdf:RDF>
  </metadata>
  <path
     style="opacity:1;fill:#be000f;fill-opacity:1;stroke:none;stroke-width:8.30200005;stroke-linejoin:miter;stroke-miterlimit:4;stroke-dasharray:none;stroke-dashoffset:0;stroke-opacity:1"
     d="m -494.74728,385.02643 c -12.05509,-19.46464 -15.82939,-56.48153 -15.82939,-155.2494 0,-178.901828 -3.33231,-175.690575 182.29612,-175.690575 140.8848,0 141.73132,0.158004 162.69666,30.301185 18.32287,26.34315 21.07528,46.28503 21.07528,152.69026 0,178.61628 5.38947,173.50723 -183.03374,173.50723 -144.89983,0 -152.05264,-1.09345 -167.20493,-25.5587 z m 297.56103,-52.06598 c 3.22739,-25.70077 2.35542,-25.87489 -129.64931,-25.87489 -122.09203,0 -132.8983,1.71427 -132.8983,21.08323 0,11.59584 3.18417,24.68443 7.076,29.0857 3.89183,4.40146 62.2339,6.5577 129.64924,4.79167 118.38133,-3.10103 122.68434,-4.09563 125.82237,-29.08571 z m 0,-97.74957 c -3.17161,-25.25729 -6.28364,-25.87483 -130.3561,-25.87483 -124.07309,0 -127.18474,0.61748 -130.35663,25.87483 -3.2282,25.70684 -2.38146,25.87489 130.35663,25.87489 132.73752,0 133.58458,-0.16812 130.3561,-25.87489 z m 0,-97.74964 c 3.22739,-25.70078 2.35542,-25.87483 -129.64931,-25.87483 l -132.8983,0 0,29.09347 0,29.09348 129.64924,-3.21865 c 125.71892,-3.12094 129.74734,-4.00291 132.89837,-29.09347 z"
     id="path6521"
     inkscape:connector-curvature="0" />
  <g
     id="g6397"
     transform="matrix(0.45348284,0,0,0.43387021,451.11539,281.72724)">
    <path
       inkscape:connector-curvature="0"
       id="path6391"
       d="m -584.54747,-325.45797 c -30.24891,-5.75006 -53.21829,-32.1537 -55.78466,-64.12532 -1.30177,-16.21723 -0.49831,-20.66351 6.21264,-34.38018 18.48558,-37.78318 62.5632,-52.11928 97.42691,-31.68779 23.58825,13.82364 35.63191,35.00585 35.63191,62.66889 0,42.18832 -41.25178,75.5529 -83.4868,67.5244 z"
       style="opacity:1;fill:#be000f;fill-opacity:1;stroke:none;stroke-width:8.30200005;stroke-linejoin:miter;stroke-miterlimit:4;stroke-dasharray:none;stroke-dashoffset:0;stroke-opacity:1" />
    <path
       inkscape:connector-curvature="0"
       id="path6393"
       d="m -683.91781,29.095489 0,-13.9274 24.72685,-1.2978 c 22.59521,-1.186 25.30459,-1.9695 31.42857,-9.0891004 l 6.70172,-7.7912 0,-107.1712986 c 0,-71.3063 -1.03311,-109.1018 -3.08711,-112.9397 -4.79846,-8.966 -20.31403,-13.856 -43.96397,-13.856 l -21.52034,0 0,-13.9501 0,-13.95001 20.71428,-1.70608 c 11.39286,-0.93835 52.21429,-2.44146 90.71429,-3.34026 38.5,-0.8988 72.89285,-2.23518 76.42857,-2.96975 l 6.42857,-1.33557 0,136.65117 c 0,106.339799 0.80917,137.75789857 3.64793,141.6400986 4.42936,6.0575004 21.14323,10.2290004 41.35207,10.3209004 l 15,0.068 0,14.2857 0,14.2858 -124.28571,0 -124.28572,0 0,-13.9275 z"
       style="opacity:1;fill:#be000f;fill-opacity:1;stroke:none;stroke-width:8.30200005;stroke-linejoin:miter;stroke-miterlimit:4;stroke-dasharray:none;stroke-dashoffset:0;stroke-opacity:1" />
    <path
       inkscape:connector-curvature="0"
       id="path6395"
       d="m -633.91781,197.46679 c -87.05656,-15.5049 -159.63137,-53.522 -222.20886,-116.400201 -60.09649,-60.3854 -99.95266,-136.8641 -115.12732,-220.914199 -6.59082,-36.5055 -6.59191,-103.2828 -0.002,-141.41516 18.71719,-108.31166 83.1169,-208.66789 173.05277,-269.67394 50.07055,-33.96428 93.87951,-52.85731 151.42857,-65.30504 42.86223,-9.27101 115.66626,-10.5248 155.71428,-2.68163 136.98112,26.82694 247.38686,111.99767 304.40826,234.83081 71.4198,153.84956 39.93926,339.073859 -78.34137,460.942659 -47.00071,48.426601 -102.75974,83.772001 -166.06689,105.269101 -60.6282,20.5875 -139.80314,26.5776 -202.85714,15.3476 z m 152.276,-64.2559 c 68.87377,-17.1071 120.19834,-46.292001 170.70492,-97.068801 51.8832,-52.1608 85.01631,-117.7366 97.35102,-192.673499 6.97032,-42.3467 4.11398,-97.7303 -7.31702,-141.87421 -20.06549,-77.48843 -66.80598,-147.17938 -131.39683,-195.91517 -40.52243,-30.57543 -106.901,-58.34302 -156.8926,-65.63157 -38.00635,-5.54115 -106.95497,-2.21103 -140.43977,6.78304 -128.94135,34.63385 -221.04654,127.4459 -256.45064,258.41875 -6.82622,25.25269 -7.5225,32.70069 -7.67136,82.05926 -0.17577,58.2826 2.7074,77.8044 17.72282,119.999999 33.57378,94.3473996 109.17602,173.0785 201.68472,210.031801 48.3312,19.3062 86.04028,25.7598 141.85731,24.2776 32.10566,-0.8525 48.04886,-2.7444 70.84743,-8.4072 z"
       style="opacity:1;fill:#be000f;fill-opacity:1;stroke:none;stroke-width:8.30200005;stroke-linejoin:miter;stroke-miterlimit:4;stroke-dasharray:none;stroke-dashoffset:0;stroke-opacity:1" />
  </g>
</svg>
