<?xml version="1.0" encoding="UTF-8" standalone="no"?>
<!-- Created with Inkscape (http://www.inkscape.org/) -->

<svg
   xmlns:dc="http://purl.org/dc/elements/1.1/"
   xmlns:cc="http://creativecommons.org/ns#"
   xmlns:rdf="http://www.w3.org/1999/02/22-rdf-syntax-ns#"
   xmlns:svg="http://www.w3.org/2000/svg"
   xmlns="http://www.w3.org/2000/svg"
   xmlns:sodipodi="http://sodipodi.sourceforge.net/DTD/sodipodi-0.dtd"
   xmlns:inkscape="http://www.inkscape.org/namespaces/inkscape"
   width="117.99673mm"
   height="112.01828mm"
   viewBox="0 0 418.09864 396.91516"
   id="svg4231"
   version="1.1"
   inkscape:version="0.48.4 r9939"
   sodipodi:docname="img-placeholder.svg">
  <defs
     id="defs4233" />
  <sodipodi:namedview
     id="base"
     pagecolor="#ffffff"
     bordercolor="#666666"
     borderopacity="1.0"
     inkscape:pageopacity="0.0"
     inkscape:pageshadow="2"
     inkscape:zoom="0.98994949"
     inkscape:cx="-168.19117"
     inkscape:cy="421.96518"
     inkscape:document-units="px"
     inkscape:current-layer="layer1"
     showgrid="false"
     fit-margin-top="0"
     fit-margin-left="0"
     fit-margin-right="0"
     fit-margin-bottom="0"
     inkscape:window-width="1855"
     inkscape:window-height="1056"
     inkscape:window-x="65"
     inkscape:window-y="24"
     inkscape:window-maximized="1" />
  <metadata
     id="metadata4236">
    <rdf:RDF>
      <cc:Work
         rdf:about="">
        <dc:format>image/svg+xml</dc:format>
        <dc:type
           rdf:resource="http://purl.org/dc/dcmitype/StillImage" />
        <dc:title></dc:title>
      </cc:Work>
    </rdf:RDF>
  </metadata>
  <g
     inkscape:label="Layer 1"
     inkscape:groupmode="layer"
     id="layer1"
     transform="translate(-119.52207,-59.618898)">
    <g
       id="g3154">
      <ellipse
         transform="matrix(1.124671,0,0,1.1189771,1152.7945,492.01698)"
         ry="167.14285"
         rx="175.71428"
         cy="-209.06639"
         cx="-732.85712"
         id="path4230-0-4"
         style="fill:#e5e5e5;fill-opacity:1;stroke:none"
         d="m -557.14284,-209.06639 c 0,92.31045 -78.66996,167.142852 -175.71428,167.142852 -97.04431,0 -175.71428,-74.832402 -175.71428,-167.142852 0,-92.31045 78.66997,-167.14285 175.71428,-167.14285 97.04432,0 175.71428,74.8324 175.71428,167.14285 z"
         sodipodi:cx="-732.85712"
         sodipodi:cy="-209.06639"
         sodipodi:rx="175.71428"
         sodipodi:ry="167.14285" />
      <flowRoot
         transform="matrix(1.0751391,0,0,1.2324012,97.340861,35.859792)"
         style="font-size:40px;font-style:normal;font-weight:normal;line-height:125%;letter-spacing:0px;word-spacing:0px;fill:#000000;fill-opacity:1;stroke:none;font-family:Sans"
         id="flowRoot3125"
         xml:space="preserve"><flowRegion
           id="flowRegion3127"><rect
             y="116.09275"
             x="53.538086"
             height="191.92899"
             width="317.1879"
             id="rect3129" /></flowRegion><flowPara
           style="font-size:48px;text-align:center;text-anchor:middle;fill:#ffffff;stroke:#ffffff"
           id="flowPara3133" /></flowRoot>    </g>
    <g
       id="g3088"
       transform="translate(667.71085,312.13715)">
      <path
         transform="translate(119.52207,59.618894)"
         inkscape:connector-curvature="0"
         id="path3064"
         d="m -572.84294,3.6166823 c -1.71387,-0.7462199 -4.10895,-2.61893162 -5.32239,-4.16156588 l -2.20626,-2.80479972 0.27163,-99.5920667 0.27163,-99.59208 2.70726,-5.77611 c 5.66397,-12.08444 17.34647,-20.85796 30.85912,-23.17512 l 7.10726,-1.21877 0.59139,-4.99328 c 0.32525,-2.7463 1.32319,-6.11017 2.21764,-7.47526 3.33095,-5.08369 6.25307,-5.48283 37.6843,-5.14743 25.66517,0.27386 29.23636,0.51043 31.56188,2.09074 3.42354,2.32646 4.95392,5.84744 4.95392,11.39758 0,2.47398 0.14379,4.49815 0.31955,4.49815 0.17576,0 3.01681,0.4941 6.31345,1.09799 12.48315,2.28672 24.10213,11.30074 29.5506,22.9254 l 2.70727,5.77611 0.27103,103.793179 0.27101,103.7931742 -73.50708,-0.039497 c -59.23628,-0.03182 -74.11205,-0.3029447 -76.62321,-1.3963035 l 0,-4.04e-5 z m 47.05777,-32.4191083 0,-13.651889 3.45533,-3.773243 3.45533,-3.773233 14.97995,-0.333865 c 16.4805,-0.367312 20.86113,0.421405 24.6369,4.435761 2.33003,2.477268 2.48288,3.390062 2.79377,16.684508 l 0.3289,14.063859 17.60131,0 17.60132,0 -0.0222,-90.661192 c -0.0209,-85.50865 -0.12674,-90.89132 -1.86173,-94.71046 -2.63214,-5.79396 -8.06429,-10.18101 -14.24861,-11.50731 -7.07256,-1.51679 -81.89851,-1.50493 -89.12616,0.0141 -4.35561,0.91544 -6.24699,2.04409 -10.15121,6.05757 l -4.79822,4.9325 0,92.93738 0,92.937392 17.67767,0 17.67767,0 0,-13.651898 z"
         style="opacity:0.7;fill:#ffffff;fill-opacity:1;stroke:#ffffff;stroke-width:1.01015258;stroke-opacity:1" />
      <path
         transform="translate(119.52207,59.618894)"
         inkscape:connector-curvature="0"
         id="path3066"
         d="m -486.15794,-155.22767 c -2.85994,-1.15069 -4.27189,-6.27837 -4.27189,-15.51389 0,-8.84282 0.12056,-9.3398 2.95275,-12.17199 2.79721,-2.79722 3.40196,-2.95276 11.48053,-2.95276 7.09775,0 8.9741,0.35108 11.18938,2.09362 2.59366,2.04018 2.66161,2.38381 2.66161,13.46098 0,10.57606 -0.16275,11.52024 -2.33795,13.56374 -2.05663,1.93211 -3.42405,2.1868 -11.36422,2.11664 -4.96444,-0.0439 -9.60404,-0.31221 -10.31021,-0.59634 l 0,0 z"
         style="opacity:0.7;fill:#ffffff;fill-opacity:1;stroke:#ffffff;stroke-width:1.01015258;stroke-opacity:1" />
      <path
         transform="translate(119.52207,59.618894)"
         inkscape:connector-curvature="0"
         id="path3068"
         d="m -537.907,-156.57188 c -1.78458,-1.78458 -2.02031,-3.36718 -2.02031,-13.56375 0,-11.26739 0.0637,-11.5935 2.66161,-13.63706 2.17661,-1.71212 4.09909,-2.09362 10.55027,-2.09362 6.86326,0 8.25381,0.31408 10.69778,2.4163 2.52776,2.17428 2.84802,3.18686 3.19762,10.10997 0.47771,9.46007 -0.35531,14.25985 -2.91996,16.8245 -1.65422,1.65422 -3.39777,1.96396 -11.05533,1.96396 -7.74451,0 -9.39068,-0.2993 -11.11168,-2.0203 z"
         style="opacity:0.7;fill:#ffffff;fill-opacity:1;stroke:#ffffff;stroke-width:1.01015258;stroke-opacity:1" />
      <path
         transform="translate(119.52207,59.618894)"
         inkscape:connector-curvature="0"
         id="path3070"
         d="m -537.2657,-113.20864 c -2.59366,-2.04018 -2.66161,-2.38381 -2.66161,-13.46098 0,-10.57606 0.16275,-11.52024 2.33795,-13.56374 2.02613,-1.90345 3.49616,-2.19639 11.02188,-2.19639 8.45685,0 8.75232,0.0813 11.29911,3.10796 2.35234,2.7956 2.61518,3.948 2.61518,11.46602 0,14.57538 -1.88311,16.74075 -14.55851,16.74075 -5.94911,0 -7.91204,-0.40876 -10.054,-2.09362 z"
         style="opacity:0.7;fill:#ffffff;fill-opacity:1;stroke:#ffffff;stroke-width:1.01015258;stroke-opacity:1" />
      <path
         transform="translate(119.52207,59.618894)"
         inkscape:connector-curvature="0"
         id="path3072"
         d="m -486.47676,-112.40984 c -3.03472,-2.32998 -3.95307,-5.66661 -3.95307,-14.36254 0,-13.70459 1.71038,-15.57892 14.25844,-15.62524 7.30513,-0.027 9.13002,0.30407 11.36422,2.06149 2.59619,2.04216 2.66161,2.37556 2.66161,13.56375 0,11.18818 -0.0654,11.52158 -2.66161,13.56374 -2.2342,1.75742 -4.05909,2.08846 -11.36422,2.06149 -5.24218,-0.0194 -9.33991,-0.52143 -10.30537,-1.26269 l 0,0 z"
         style="opacity:0.7;fill:#ffffff;fill-opacity:1;stroke:#ffffff;stroke-width:1.01015258;stroke-opacity:1" />
      <path
         transform="translate(119.52207,59.618894)"
         inkscape:connector-curvature="0"
         id="path3074"
         d="m -486.02144,-69.870077 c -3.31904,-1.607104 -4.40839,-5.208373 -4.40839,-14.573595 0,-8.937228 1.47561,-13.736719 4.59094,-14.932182 0.89936,-0.345118 5.60991,-0.627486 10.46788,-0.627486 7.92659,0 9.05798,0.239831 11.02906,2.337947 1.98307,2.11088 2.19639,3.428233 2.19639,13.563742 0,10.924238 -0.0715,11.282034 -2.66161,13.319416 -2.21731,1.744136 -4.03002,2.082209 -10.85914,2.025255 -4.50864,-0.0376 -9.16845,-0.538496 -10.35513,-1.113097 l 0,0 z"
         style="opacity:0.7;fill:#ffffff;fill-opacity:1;stroke:#ffffff;stroke-width:1.01015258;stroke-opacity:1" />
      <path
         transform="translate(119.52207,59.618894)"
         inkscape:connector-curvature="0"
         id="path3076"
         d="m -537.2657,-70.782235 c -2.59701,-2.04281 -2.66161,-2.372827 -2.66161,-13.597709 0,-15.022243 0.51262,-15.623396 13.32246,-15.623396 7.46891,0 9.21686,0.315963 10.86486,1.96396 2.56465,2.564652 3.39767,7.364427 2.91996,16.8245 -0.3496,6.923108 -0.66986,7.935683 -3.19762,10.109972 -2.44397,2.102212 -3.83452,2.416295 -10.69778,2.416295 -6.45118,0 -8.37366,-0.381503 -10.55027,-2.093622 z"
         style="opacity:0.7;fill:#ffffff;fill-opacity:1;stroke:#ffffff;stroke-width:1.01015258;stroke-opacity:1" />
      <path
         transform="translate(119.52207,59.618894)"
         inkscape:connector-curvature="0"
         id="path3078"
         d="m -409.30876,-97.390497 c -2.6652,-2.292512 -2.83425,-2.918803 -2.83425,-10.500553 0,-6.48455 0.37314,-8.47495 1.90645,-10.16923 3.60788,-3.98667 11.85808,-4.03895 15.79691,-0.10011 1.65549,1.65549 1.99461,3.37638 1.99461,10.12174 0,7.28195 -0.25785,8.384997 -2.47946,10.606606 -3.44873,3.448732 -10.39983,3.468809 -14.38426,0.04155 l 0,-10e-7 z"
         style="opacity:0.7;fill:#ffffff;fill-opacity:1;stroke:#ffffff;stroke-width:1.01015258;stroke-opacity:1" />
      <path
         transform="translate(119.52207,59.618894)"
         inkscape:connector-curvature="0"
         id="path3080"
         d="m -372.79298,-97.432044 c -2.21587,-2.215873 -2.47946,-3.331566 -2.47946,-10.494696 0,-10.48449 1.60059,-12.78473 8.89607,-12.78473 7.94737,0 9.28667,1.83303 9.28667,12.71015 0,8.370052 -0.14761,8.977606 -2.66161,10.955119 -3.80016,2.989211 -9.84547,2.810358 -13.04167,-0.385843 z"
         style="opacity:0.7;fill:#ffffff;fill-opacity:1;stroke:#ffffff;stroke-width:1.01015258;stroke-opacity:1" />
      <path
         transform="translate(119.52207,59.618894)"
         inkscape:connector-curvature="0"
         id="path3082"
         d="m -370.72676,-61.718317 c -3.80307,-2.184657 -4.54568,-4.151256 -4.54568,-12.038045 0,-9.566307 1.93324,-12.104844 9.21854,-12.104844 7.34747,0 8.9642,2.256172 8.9642,12.509697 0,6.994579 -0.32305,8.682741 -1.9419,10.14778 -2.4228,2.192611 -9.00805,3.029008 -11.69516,1.485412 z"
         style="opacity:0.7;fill:#ffffff;fill-opacity:1;stroke:#ffffff;stroke-width:1.01015258;stroke-opacity:1" />
      <path
         transform="translate(119.52207,59.618894)"
         inkscape:connector-curvature="0"
         id="path3084"
         d="m -407.12732,-61.568577 c -3.17197,-1.285727 -4.45185,-3.378866 -5.14117,-8.407995 -0.82099,-5.989762 0.24194,-11.455405 2.7072,-13.920672 2.77611,-2.776102 10.85267,-2.703654 14.45464,0.12966 2.44381,1.922299 2.66161,2.700825 2.66161,9.513832 0,4.081114 -0.28237,8.156052 -0.62748,9.055416 -1.39415,3.633083 -9.12254,5.628999 -14.0548,3.629759 z"
         style="opacity:0.7;fill:#ffffff;fill-opacity:1;stroke:#ffffff;stroke-width:1.01015258;stroke-opacity:1" />
      <path
         transform="translate(119.52207,59.618894)"
         inkscape:connector-curvature="0"
         id="path3086"
         d="m -409.61763,-5.0030302 0,-10.1474978 4.04061,0 4.04061,0 0.004,-8.333758 c 0.006,-13.932236 2.26303,-15.909903 18.15454,-15.909903 14.48411,0 17.19706,2.541817 17.19706,16.112277 l 0,8.131384 10.6066,0 10.6066,0 0,-63.503381 0,-63.503381 -2.18991,-2.78402 c -4.07988,-5.18674 -6.52162,-5.56966 -35.51531,-5.56966 l -26.65844,0 -0.53253,-11.23541 c -0.62319,-13.14798 0.19955,-16.98998 4.3941,-20.51947 3.06812,-2.58165 3.14263,-2.59031 22.29482,-2.59031 l 19.21641,0 3.43451,3.43452 c 2.89215,2.89215 3.43452,4.1551 3.43452,7.99752 l 0,4.56299 5.10124,1.09402 c 10.11845,2.17002 17.85973,8.32746 22.32983,17.76122 l 2.87192,6.06091 7.9e-4,69.905539 c 5.8e-4,50.677353 -0.31988,70.6093395 -1.16504,72.4642725 -0.64122,1.40731425 -2.34585,3.3606159 -3.78808,4.3406861 -2.36828,1.6093549 -6.26631,1.8108399 -40.25041,2.0804395 l -37.62818,0.2985102 0,-10.1474975 z"
         style="opacity:0.7;fill:#ffffff;fill-opacity:1;stroke:#ffffff;stroke-width:1.01015258;stroke-opacity:1" />
    </g>
  </g>
</svg>
