<?xml version="1.0" encoding="UTF-8" standalone="no"?>
<svg
   xmlns:dc="http://purl.org/dc/elements/1.1/"
   xmlns:cc="http://creativecommons.org/ns#"
   xmlns:rdf="http://www.w3.org/1999/02/22-rdf-syntax-ns#"
   xmlns:svg="http://www.w3.org/2000/svg"
   xmlns="http://www.w3.org/2000/svg"
   xmlns:sodipodi="http://sodipodi.sourceforge.net/DTD/sodipodi-0.dtd"
   xmlns:inkscape="http://www.inkscape.org/namespaces/inkscape"
   version="1.1"
   id="svg2"
   viewBox="0 0 396.44354 380.78164"
   height="107.46504mm"
   width="111.88518mm"
   inkscape:version="0.91 r13725"
   sodipodi:docname="events-icon.svg">
  <sodipodi:namedview
     pagecolor="#ffffff"
     bordercolor="#666666"
     borderopacity="1"
     objecttolerance="10"
     gridtolerance="10"
     guidetolerance="10"
     inkscape:pageopacity="0"
     inkscape:pageshadow="2"
     inkscape:window-width="1474"
     inkscape:window-height="841"
     id="namedview4271"
     showgrid="false"
     inkscape:zoom="0.61977777"
     inkscape:cx="-39.766759"
     inkscape:cy="190.39082"
     inkscape:window-x="54"
     inkscape:window-y="-8"
     inkscape:window-maximized="1"
     inkscape:current-layer="svg2" />
  <defs
     id="defs4" />
  <metadata
     id="metadata7">
    <rdf:RDF>
      <cc:Work
         rdf:about="">
        <dc:format>image/svg+xml</dc:format>
        <dc:type
           rdf:resource="http://purl.org/dc/dcmitype/StillImage" />
        <dc:title></dc:title>
      </cc:Work>
    </rdf:RDF>
  </metadata>
  <g
     id="g10940"
     transform="matrix(1.8145659,0,0,1.52507,865.84609,620.5204)"
     style="fill:#ff8080;fill-opacity:1">
    <path
       inkscape:connector-curvature="0"
       id="path10932"
       d="m -471.84048,-348.08357 c 0,-12.11887 4.39784,-21.66478 10.64335,-23.10234 2.47991,-0.57082 12.2366,-1.26584 21.68153,-1.5445 l 17.17259,-0.50665 0.59323,-13.45474 c 0.41897,-9.50259 1.45749,-13.78638 3.53553,-14.5838 6.61355,-2.53786 8.81555,0.87116 9.42015,14.5838 l 0.59323,13.45474 40.91118,0.54691 40.91117,0.54691 0,-11.77753 c 0,-14.00227 3.75207,-20.88624 9.47813,-17.38965 2.81886,1.72132 3.79037,5.29941 4.25124,15.65736 l 0.59738,13.42615 19.75858,0 c 18.04122,0 20.14039,0.40642 24.15136,4.6759 3.53275,3.76045 4.39277,7.12249 4.39277,17.17259 l 0,12.4967 -104.04571,0 -104.04571,0 0,-10.20185 z m 66.3601,4.64601 c 5.43472,-4.5987 7.05918,-12.38709 3.86453,-18.52828 -4.25811,-8.18553 -7.28847,-7.33533 -7.97786,2.23828 -0.56026,7.78058 -1.16841,8.71386 -5.67823,8.71386 -4.50982,0 -5.11797,-0.93328 -5.67824,-8.71386 -0.7074,-9.82383 -3.8328,-10.43523 -8.1414,-1.59262 -3.08882,6.33922 -0.35946,15.96165 5.49828,19.38429 5.19447,3.0351 13.57221,2.34054 18.11292,-1.50167 z m 96.64932,-0.85724 c 5.67207,-5.32864 6.24697,-15.96327 1.14037,-21.09465 -3.37206,-3.38842 -3.56169,-3.32503 -4.10113,1.37092 -1.35569,11.80151 -2.51462,14.01498 -7.33797,14.01498 -5.33019,0 -7.24873,-3.33492 -7.24873,-12.60019 0,-6.08083 -0.0833,-6.13343 -4.04061,-2.5521 -5.58262,5.05221 -5.16832,14.20824 0.91832,20.29488 6.1659,6.1659 14.46707,6.39327 20.66975,0.56616 z"
       style="opacity:1;fill:#ff8080;fill-opacity:1;stroke:none;stroke-width:2;stroke-linejoin:miter;stroke-miterlimit:4;stroke-dasharray:none;stroke-dashoffset:0;stroke-opacity:1" />
    <path
       inkscape:connector-curvature="0"
       id="path10938"
       d="m -461.69914,-166.73043 c -9.77659,-4.9467 -10.07973,-7.5187 -10.11156,-85.7934 l -0.0298,-73.23606 104.04571,0 104.04571,0 -0.0642,75.25636 c -0.0677,79.2084 -0.0485,79.0374 -9.39939,84.0177 -6.54444,3.4856 -181.56304,3.2584 -188.48645,-0.2446 z m 42.38659,-29.72993 0,-20.20306 -20.20305,0 -20.20305,0 0,20.20306 0,20.20303 20.20305,0 20.20305,0 0,-20.20303 z m 48.48732,0 0,-20.20306 -20.20305,0 -20.20305,0 0,20.20306 0,20.20303 20.20305,0 20.20305,0 0,-20.20303 z m 48.48732,0 0,-20.20306 -20.20305,0 -20.20305,0 0,20.20306 0,20.20303 20.20305,0 20.20305,0 0,-20.20303 z m 47.47717,0 0,-19.1929 -20.70812,-0.57576 -20.70813,-0.57575 0,18.92686 c 0,10.40977 0.63681,19.56368 1.41514,20.34198 0.77833,0.7784 10.09699,1.1572 20.70813,0.8418 l 19.29298,-0.5733 0,-19.19293 z m -144.45181,-48.48733 0,-20.20305 -20.20305,0 -20.20305,0 0,20.20305 0,20.20305 20.20305,0 20.20305,0 0,-20.20305 z m 48.48732,0 0,-20.20305 -20.20305,0 -20.20305,0 0,20.20305 0,20.20305 20.20305,0 20.20305,0 0,-20.20305 z m 48.48732,0 0,-20.20305 -20.20305,0 -20.20305,0 0,20.20305 0,20.20305 20.20305,0 20.20305,0 0,-20.20305 z m 47.47717,0 0,-19.1929 -20.20305,0 -20.20305,0 -0.59221,17.00372 c -0.32572,9.35205 -0.11427,18.24925 0.4699,19.77156 0.82086,2.13913 5.5445,2.6364 20.79527,2.18918 l 19.73314,-0.57866 0,-19.1929 z m -144.88621,-47.98224 0.57575,-20.70813 -20.27373,0 -20.27372,0 0,19.86633 c 0,10.92649 0.63778,20.50412 1.41729,21.28363 0.77952,0.77951 9.64361,1.15832 19.69798,0.8418 l 18.28068,-0.57551 0.57575,-20.70812 z m 48.48732,0 0.57575,-20.70813 -20.27372,0 -20.27373,0 0,19.86633 c 0,10.92649 0.63778,20.50412 1.4173,21.28363 0.77951,0.77951 9.6436,1.15832 19.69797,0.8418 l 18.28068,-0.57551 0.57575,-20.70812 z m 48.48732,0 0.57576,-20.70813 -20.27373,0 -20.27373,0 0,19.86633 c 0,10.92649 0.63779,20.50412 1.4173,21.28363 0.77951,0.77951 9.6436,1.15832 19.69797,0.8418 l 18.28068,-0.57551 0.57575,-20.70812 z m 46.73561,18.8876 c 1.50381,-1.81197 2.13813,-9.26441 1.76261,-20.70812 l -0.58665,-17.87746 -20.20305,0 -20.20305,0 -0.58877,18.02286 c -0.32382,9.91256 -0.12507,19.23122 0.44167,20.70812 1.49818,3.9042 36.12248,3.77635 39.37724,-0.1454 z"
       style="opacity:1;fill:#ff8080;fill-opacity:1;stroke:none;stroke-width:2;stroke-linejoin:miter;stroke-miterlimit:4;stroke-dasharray:none;stroke-dashoffset:0;stroke-opacity:1" />
  </g>
</svg>
