<?xml version="1.0" encoding="UTF-8" standalone="no"?>
<svg
   xmlns:dc="http://purl.org/dc/elements/1.1/"
   xmlns:cc="http://creativecommons.org/ns#"
   xmlns:rdf="http://www.w3.org/1999/02/22-rdf-syntax-ns#"
   xmlns:svg="http://www.w3.org/2000/svg"
   xmlns="http://www.w3.org/2000/svg"
   xmlns:sodipodi="http://sodipodi.sourceforge.net/DTD/sodipodi-0.dtd"
   xmlns:inkscape="http://www.inkscape.org/namespaces/inkscape"
   version="1.1"
   id="svg2"
   viewBox="0 0 396.44354 380.78164"
   height="107.46504mm"
   width="111.88518mm"
   inkscape:version="0.48.4 r9939"
   sodipodi:docname="active-events-icon.svg">
  <sodipodi:namedview
     pagecolor="#ffffff"
     bordercolor="#666666"
     borderopacity="1"
     objecttolerance="10"
     gridtolerance="10"
     guidetolerance="10"
     inkscape:pageopacity="0"
     inkscape:pageshadow="2"
     inkscape:window-width="1855"
     inkscape:window-height="1056"
     id="namedview4271"
     showgrid="false"
     inkscape:zoom="0.61977777"
     inkscape:cx="-39.766759"
     inkscape:cy="190.39082"
     inkscape:window-x="65"
     inkscape:window-y="24"
     inkscape:window-maximized="1"
     inkscape:current-layer="svg2" />
  <defs
     id="defs4" />
  <metadata
     id="metadata7">
    <rdf:RDF>
      <cc:Work
         rdf:about="">
        <dc:format>image/svg+xml</dc:format>
        <dc:type
           rdf:resource="http://purl.org/dc/dcmitype/StillImage" />
        <dc:title></dc:title>
      </cc:Work>
    </rdf:RDF>
  </metadata>
  <g
     id="g10940"
     transform="matrix(1.8145659,0,0,1.52507,865.84609,620.5204)"
     style="fill:#ff8080;fill-opacity:1">
    <path
       inkscape:connector-curvature="0"
       id="path10932"
       d="m -471.84048,-348.08357 c 0,-12.11887 4.39784,-21.66478 10.64335,-23.10234 2.47991,-0.57082 12.2366,-1.26584 21.68153,-1.5445 l 17.17259,-0.50665 0.59323,-13.45474 c 0.41897,-9.50259 1.45749,-13.78638 3.53553,-14.5838 6.61355,-2.53786 8.81555,0.87116 9.42015,14.5838 l 0.59323,13.45474 40.91118,0.54691 40.91117,0.54691 0,-11.77753 c 0,-14.00227 3.75207,-20.88624 9.47813,-17.38965 2.81886,1.72132 3.79037,5.29941 4.25124,15.65736 l 0.59738,13.42615 19.75858,0 c 18.04122,0 20.14039,0.40642 24.15136,4.6759 3.53275,3.76045 4.39277,7.12249 4.39277,17.17259 l 0,12.4967 -104.04571,0 -104.04571,0 0,-10.20185 z m 66.3601,4.64601 c 5.43472,-4.5987 7.05918,-12.38709 3.86453,-18.52828 -4.25811,-8.18553 -7.28847,-7.33533 -7.97786,2.23828 -0.56026,7.78058 -1.16841,8.71386 -5.67823,8.71386 -4.50982,0 -5.11797,-0.93328 -5.67824,-8.71386 -0.7074,-9.82383 -3.8328,-10.43523 -8.1414,-1.59262 -3.08882,6.33922 -0.35946,15.96165 5.49828,19.38429 5.19447,3.0351 13.57221,2.34054 18.11292,-1.50167 z m 96.64932,-0.85724 c 5.67207,-5.32864 6.24697,-15.96327 1.14037,-21.09465 -3.37206,-3.38842 -3.56169,-3.32503 -4.10113,1.37092 -1.35569,11.80151 -2.51462,14.01498 -7.33797,14.01498 -5.33019,0 -7.24873,-3.33492 -7.24873,-12.60019 0,-6.08083 -0.0833,-6.13343 -4.04061,-2.5521 -5.58262,5.05221 -5.16832,14.20824 0.91832,20.29488 6.1659,6.1659 14.46707,6.39327 20.66975,0.56616 z"
       style="opacity:1;fill:#ff8080;fill-opacity:1;stroke:none;stroke-width:2;stroke-linejoin:miter;stroke-miterlimit:4;stroke-dasharray:none;stroke-dashoffset:0;stroke-opacity:1" />
    <path
       inkscape:connector-curvature="0"
       id="path10938"
       d="m -461.69914,-166.73043 c -9.77659,-4.9467 -10.07973,-7.5187 -10.11156,-85.7934 l -0.0298,-73.23606 104.04571,0 104.04571,0 -0.0642,75.25636 c -0.0677,79.2084 -0.0485,79.0374 -9.39939,84.0177 -6.54444,3.4856 -181.56304,3.2584 -188.48645,-0.2446 z m 42.38659,-29.72993 0,-20.20306 -20.20305,0 -20.20305,0 0,20.20306 0,20.20303 20.20305,0 20.20305,0 0,-20.20303 z m 48.48732,0 0,-20.20306 -20.20305,0 -20.20305,0 0,20.20306 0,20.20303 20.20305,0 20.20305,0 0,-20.20303 z m 48.48732,0 0,-20.20306 -20.20305,0 -20.20305,0 0,20.20306 0,20.20303 20.20305,0 20.20305,0 0,-20.20303 z m 47.47717,0 0,-19.1929 -20.70812,-0.57576 -20.70813,-0.57575 0,18.92686 c 0,10.40977 0.63681,19.56368 1.41514,20.34198 0.77833,0.7784 10.09699,1.1572 20.70813,0.8418 l 19.29298,-0.5733 0,-19.19293 z m -144.45181,-48.48733 0,-20.20305 -20.20305,0 -20.20305,0 0,20.20305 0,20.20305 20.20305,0 20.20305,0 0,-20.20305 z m 48.48732,0 0,-20.20305 -20.20305,0 -20.20305,0 0,20.20305 0,20.20305 20.20305,0 20.20305,0 0,-20.20305 z m 48.48732,0 0,-20.20305 -20.20305,0 -20.20305,0 0,20.20305 0,20.20305 20.20305,0 20.20305,0 0,-20.20305 z m 47.47717,0 0,-19.1929 -20.20305,0 -20.20305,0 -0.59221,17.00372 c -0.32572,9.35205 -0.11427,18.24925 0.4699,19.77156 0.82086,2.13913 5.5445,2.6364 20.79527,2.18918 l 19.73314,-0.57866 0,-19.1929 z m -144.88621,-47.98224 0.57575,-20.70813 -20.27373,0 -20.27372,0 0,19.86633 c 0,10.92649 0.63778,20.50412 1.41729,21.28363 0.77952,0.77951 9.64361,1.15832 19.69798,0.8418 l 18.28068,-0.57551 0.57575,-20.70812 z m 48.48732,0 0.57575,-20.70813 -20.27372,0 -20.27373,0 0,19.86633 c 0,10.92649 0.63778,20.50412 1.4173,21.28363 0.77951,0.77951 9.6436,1.15832 19.69797,0.8418 l 18.28068,-0.57551 0.57575,-20.70812 z m 48.48732,0 0.57576,-20.70813 -20.27373,0 -20.27373,0 0,19.86633 c 0,10.92649 0.63779,20.50412 1.4173,21.28363 0.77951,0.77951 9.6436,1.15832 19.69797,0.8418 l 18.28068,-0.57551 0.57575,-20.70812 z m 46.73561,18.8876 c 1.50381,-1.81197 2.13813,-9.26441 1.76261,-20.70812 l -0.58665,-17.87746 -20.20305,0 -20.20305,0 -0.58877,18.02286 c -0.32382,9.91256 -0.12507,19.23122 0.44167,20.70812 1.49818,3.9042 36.12248,3.77635 39.37724,-0.1454 z"
       style="opacity:1;fill:#ff8080;fill-opacity:1;stroke:none;stroke-width:2;stroke-linejoin:miter;stroke-miterlimit:4;stroke-dasharray:none;stroke-dashoffset:0;stroke-opacity:1" />
  </g>
  <g
     id="g3259"
     transform="matrix(1.2716763,0,0,1.7935513,-77.295632,-339.60174)">
    <path
       inkscape:connector-curvature="0"
       id="path3247"
       d="m -216.07615,190.61891 c -7.93075,-3.9091 -15.85168,-11.89131 -18.7544,-18.8995 -2.86471,-6.9164 -3.50055,-22.84718 -0.97422,-24.40854 0.88742,-0.54846 1.62508,-2.22496 1.63926,-3.72556 0.0337,-3.57212 7.46457,-11.63842 14.14513,-15.3548 6.8782,-3.82632 20.35068,-5.15201 28.89327,-2.84308 7.31599,1.9774 17.68711,10.90481 21.53516,18.53736 3.21861,6.38408 3.0033,21.40627 -0.40881,28.52376 -8.13583,16.97088 -30.56434,25.81582 -46.07539,18.17036 l 0,0 z"
       style="fill:#ff8080;fill-opacity:1" />
    <path
       inkscape:connector-curvature="0"
       id="path3249"
       d="m -266.43743,241.29617 c 0.0447,-9.97713 10.26005,-31.86626 14.87158,-31.86626 0.85159,0 3.47559,-1.36974 5.83112,-3.04386 7.70711,-5.47759 16.61772,-7.05801 42.19959,-7.48468 27.10854,-0.45213 34.35926,0.86213 45.66711,8.27758 3.37525,2.21341 8.2762,7.39784 10.891,11.52096 3.96776,6.25651 4.75419,9.17919 4.75419,17.66833 l 0,10.17174 -62.11904,0 -62.11904,0 0.0235,-5.24381 z"
       style="fill:#ff8080;fill-opacity:1" />
    <path
       inkscape:connector-curvature="0"
       id="path3251"
       d="m -251.93958,127.77148 c -3.10595,-1.35933 -10.56526,-2.65495 -16.57624,-2.87916 -13.5475,-0.5053 -17.3013,-3.21209 -7.94754,-5.7308 8.47323,-2.2816 20.39174,-13.71288 21.83827,-20.945505 1.60413,-8.020663 1.3047,-11.733204 -1.35814,-16.838955 -3.04554,-5.839576 -3.04207,-5.866123 0.767,-5.866123 6.62106,0 16.0197,6.57723 19.57706,13.700154 4.79809,9.607242 3.29227,16.725089 -5.37105,25.388419 -6.5731,6.5731 -6.61296,6.68423 -4.01876,11.20437 3.04045,5.29767 1.62143,5.70169 -6.9106,1.9676 z"
       style="fill:#ff8080;fill-opacity:1" />
    <path
       inkscape:connector-curvature="0"
       id="path3253"
       d="m -317.16053,117.21963 c 2.6506,-5.12571 2.63,-5.21778 -2.08659,-9.32479 -6.30359,-5.48892 -10.13958,-11.950281 -10.13958,-17.079187 0,-6.675743 7.02563,-18.531679 10.98156,-18.531679 0.84215,0 2.30048,-0.926961 3.24075,-2.059912 0.94026,-1.132951 3.75191,-2.228311 6.24811,-2.434132 2.4962,-0.205822 4.73117,-0.94582 4.96659,-1.644441 0.53314,-1.582104 22.33193,0.447909 27.80788,2.58961 5.83854,2.28351 12.74158,9.196356 15.22379,15.245407 6.5279,15.90828 -6.88878,28.892604 -32.92279,31.861844 -7.32143,0.83503 -14.13951,2.16688 -15.15127,2.95967 -1.01177,0.7928 -3.86591,1.92586 -6.34253,2.51794 l -4.50296,1.07649 2.67704,-5.17682 z"
       style="fill:#ff8080;fill-opacity:1" />
    <path
       inkscape:connector-curvature="0"
       id="path3255"
       d="m -370.97038,190.61891 c -7.93075,-3.9091 -15.85168,-11.89131 -18.7544,-18.8995 -2.86471,-6.9164 -3.50055,-22.84718 -0.97422,-24.40854 0.88742,-0.54846 1.61349,-2.07284 1.61349,-3.38752 0,-4.12112 6.7802,-11.78481 13.54639,-15.31155 8.13224,-4.23876 20.68968,-5.61047 29.51778,-3.22437 7.31599,1.9774 17.68711,10.90481 21.53516,18.53736 3.19401,6.3353 3.00451,21.40864 -0.35698,28.39504 -8.25178,17.15018 -30.52872,25.98764 -46.12722,18.29908 z"
       style="fill:#ff8080;fill-opacity:1" />
    <path
       inkscape:connector-curvature="0"
       id="path3257"
       d="m -421.33166,241.29617 c 0.0481,-10.74641 10.33691,-31.86626 15.52402,-31.86626 1.21044,0 2.20079,-0.54883 2.20079,-1.21962 0,-1.3302 5.27134,-3.8641 15.32808,-7.36812 7.64575,-2.66397 54.9141,-2.52898 63.24162,0.1806 8.64952,2.81436 19.55524,11.35867 23.84853,18.68462 3.16095,5.39376 4.07155,9.17122 4.07155,16.89009 l 0,9.9425 -62.11904,0 -62.11904,0 0.0235,-5.24381 z"
       style="fill:#ff8080;fill-opacity:1" />
  </g>
</svg>
