<?xml version="1.0" encoding="UTF-8" standalone="no"?>
<svg
   xmlns:dc="http://purl.org/dc/elements/1.1/"
   xmlns:cc="http://creativecommons.org/ns#"
   xmlns:rdf="http://www.w3.org/1999/02/22-rdf-syntax-ns#"
   xmlns:svg="http://www.w3.org/2000/svg"
   xmlns="http://www.w3.org/2000/svg"
   version="1.1"
   id="svg5019"
   viewBox="0 0 309.161 96.671442"
   height="27.282829mm"
   width="87.252106mm">
  <defs
     id="defs5021" />
  <metadata
     id="metadata5024">
    <rdf:RDF>
      <cc:Work
         rdf:about="">
        <dc:format>image/svg+xml</dc:format>
        <dc:type
           rdf:resource="http://purl.org/dc/dcmitype/StillImage" />
        <dc:title></dc:title>
      </cc:Work>
    </rdf:RDF>
  </metadata>
  <g
     transform="translate(-116.84803,-278.3122)"
     id="layer1">
    <g
       id="g5638"
       transform="matrix(0.9411868,0,0,0.8641586,-1046.233,824.07904)">
      <rect
         style="opacity:1;fill:#be000f;fill-opacity:1;stroke:none;stroke-width:1.02326608;stroke-miterlimit:4;stroke-dasharray:none;stroke-dashoffset:0;stroke-opacity:1"
         id="rect4136-0-8-3"
         width="309.16101"
         height="96.67144"
         x="1245.4194"
         y="-624.54498"
         ry="34.345188" />
      <flowRoot
         xml:space="preserve"
         id="flowRoot4382-9-0"
         style="font-style:normal;font-weight:normal;font-size:35px;line-height:125%;font-family:sans-serif;letter-spacing:0px;word-spacing:0px;fill:#000000;fill-opacity:1;stroke:none;stroke-width:1px;stroke-linecap:butt;stroke-linejoin:miter;stroke-opacity:1"
         transform="translate(1297.6656,-645.18606)"><flowRegion
           id="flowRegion4384-4-5"><rect
             id="rect4386-0-5"
             width="648.57141"
             height="82.857147"
             x="40"
             y="25.714285"
             style="font-size:35px" /></flowRegion><flowPara
           id="flowPara4388-8-4"
           style="font-style:normal;font-variant:normal;font-weight:normal;font-stretch:normal;font-size:60px;font-family:sans-serif;-inkscape-font-specification:sans-serif;fill:#ffffff">Follow</flowPara></flowRoot>      <path
         style="opacity:1;fill:#ff8080;fill-opacity:1;stroke:none;stroke-width:8.30200005;stroke-linejoin:miter;stroke-miterlimit:4;stroke-dasharray:none;stroke-dashoffset:0;stroke-opacity:1"
         d="m 1291.5505,-548.9694 c -4.808,-1.25231 -8.8622,-3.63301 -12.6885,-7.4511 -6.1081,-6.09481 -8.8465,-12.61728 -8.8645,-21.1138 -0.018,-8.30374 2.3774,-15.17074 7.2355,-20.74515 11.0454,-12.67405 29.3107,-13.02383 40.53,-0.77615 5.5609,6.07064 8.0868,12.58979 8.0868,20.87108 0,8.43486 -2.6233,15.12159 -8.3046,21.16821 -7.0044,7.45484 -16.7205,10.46253 -25.9947,8.04691 z m 11.3097,-16.25882 0.1555,-7.86532 7.3736,-0.16587 7.3737,-0.16588 0,-4.46178 0,-4.46178 -7.5514,-0.29744 -7.5514,-0.29746 -0.049,-1.78471 c -0.027,-0.98159 -0.08,-4.5287 -0.1172,-7.88248 l -0.068,-6.09776 -4.1828,0 -4.1829,0 0,8.0312 0,8.03121 -4.0434,0.0751 c -2.2239,0.0413 -5.5492,0.1127 -7.3897,0.15864 l -3.3462,0.0835 -0.1629,4.60059 -0.1629,4.6006 7.5526,0 7.5525,0 0,7.6346 c 0,4.19904 0.1773,7.82368 0.394,8.05478 0.2166,0.2311 2.1616,0.34264 4.3222,0.24788 l 3.9284,-0.17232 0.1555,-7.86532 z"
         id="path5606-5" />
    </g>
  </g>
</svg>
