<?xml version="1.0" encoding="UTF-8" standalone="no"?>
<svg
   xmlns:dc="http://purl.org/dc/elements/1.1/"
   xmlns:cc="http://creativecommons.org/ns#"
   xmlns:rdf="http://www.w3.org/1999/02/22-rdf-syntax-ns#"
   xmlns:svg="http://www.w3.org/2000/svg"
   xmlns="http://www.w3.org/2000/svg"
   xmlns:sodipodi="http://sodipodi.sourceforge.net/DTD/sodipodi-0.dtd"
   xmlns:inkscape="http://www.inkscape.org/namespaces/inkscape"
   version="1.1"
   id="svg2"
   viewBox="0 0 396.44354 380.78164"
   height="107.46504mm"
   width="111.88518mm"
   inkscape:version="0.91 r13725"
   sodipodi:docname="list-icon.svg">
  <sodipodi:namedview
     pagecolor="#ffffff"
     bordercolor="#666666"
     borderopacity="1"
     objecttolerance="10"
     gridtolerance="10"
     guidetolerance="10"
     inkscape:pageopacity="0"
     inkscape:pageshadow="2"
     inkscape:window-width="1474"
     inkscape:window-height="841"
     id="namedview4271"
     showgrid="false"
     inkscape:zoom="0.61977777"
     inkscape:cx="198.22177"
     inkscape:cy="190.39082"
     inkscape:window-x="54"
     inkscape:window-y="-8"
     inkscape:window-maximized="1"
     inkscape:current-layer="svg2" />
  <defs
     id="defs4" />
  <metadata
     id="metadata7">
    <rdf:RDF>
      <cc:Work
         rdf:about="">
        <dc:format>image/svg+xml</dc:format>
        <dc:type
           rdf:resource="http://purl.org/dc/dcmitype/StillImage" />
        <dc:title></dc:title>
      </cc:Work>
    </rdf:RDF>
  </metadata>
  <g
     id="g4291"
     transform="matrix(2.9668093,0,0,3.573912,-1881.7341,-4893.614)">
    <path
       transform="translate(0,-867.63784)"
       inkscape:connector-curvature="0"
       id="path4275"
       d="m 643.69766,2259.458 c -3.33001,-4.2334 -3.64632,-6.5714 -1.4454,-10.6839 3.64761,-6.8156 14.99364,-6.2147 18.26605,0.9675 4.62469,10.1501 -9.88613,18.5323 -16.82065,9.7164 z"
       style="opacity:1;fill:#ff8080;fill-opacity:1;stroke:#ff8080;stroke-width:2.85714293;stroke-miterlimit:4;stroke-dasharray:none;stroke-dashoffset:0;stroke-opacity:1" />
    <path
       transform="translate(0,-867.63784)"
       inkscape:connector-curvature="0"
       id="path4279"
       d="m 675.02254,2288.9364 0,-7.1429 42.14286,0 42.14286,0 0,7.1429 0,7.1429 -42.14286,0 -42.14286,0 0,-7.1429 z"
       style="opacity:1;fill:#ff8080;fill-opacity:1;stroke:#ff8080;stroke-width:2.85714293;stroke-miterlimit:4;stroke-dasharray:none;stroke-dashoffset:0;stroke-opacity:1" />
    <path
       transform="translate(0,-867.63784)"
       inkscape:connector-curvature="0"
       id="path4283"
       d="m 643.69766,2295.1723 c -3.33001,-4.2334 -3.64632,-6.5714 -1.4454,-10.6839 3.64761,-6.8156 14.99364,-6.2147 18.26605,0.9675 4.62469,10.1501 -9.88613,18.5322 -16.82065,9.7164 z"
       style="opacity:1;fill:#ff8080;fill-opacity:1;stroke:#ff8080;stroke-width:2.85714293;stroke-miterlimit:4;stroke-dasharray:none;stroke-dashoffset:0;stroke-opacity:1" />
    <path
       transform="translate(0,-867.63784)"
       inkscape:connector-curvature="0"
       id="path4285"
       d="m 675.02254,2253.2221 0,-7.1428 42.14286,0 42.14286,0 0,7.1428 0,7.1429 -42.14286,0 -42.14286,0 0,-7.1429 z"
       style="opacity:1;fill:#ff8080;fill-opacity:1;stroke:#ff8080;stroke-width:2.85714293;stroke-miterlimit:4;stroke-dasharray:none;stroke-dashoffset:0;stroke-opacity:1" />
    <path
       transform="translate(0,-867.63784)"
       inkscape:connector-curvature="0"
       id="path4287"
       d="m 675.02254,2325.365 0,-6.4286 42.14286,0 42.14286,0 0,6.4286 0,6.4285 -42.14286,0 -42.14286,0 0,-6.4285 z"
       style="opacity:1;fill:#ff8080;fill-opacity:1;stroke:#ff8080;stroke-width:2.85714293;stroke-miterlimit:4;stroke-dasharray:none;stroke-dashoffset:0;stroke-opacity:1" />
    <path
       transform="translate(0,-867.63784)"
       inkscape:connector-curvature="0"
       id="path4289"
       d="m 643.69766,2330.8866 c -4.63118,-5.8876 -3.64565,-10.7839 2.84628,-14.1411 4.92279,-2.5456 10.13696,-0.9667 13.4363,4.0687 6.37372,9.7275 -9.04921,19.2682 -16.28258,10.0724 z"
       style="opacity:1;fill:#ff8080;fill-opacity:1;stroke:#ff8080;stroke-width:2.85714293;stroke-miterlimit:4;stroke-dasharray:none;stroke-dashoffset:0;stroke-opacity:1" />
  </g>
</svg>
