<?xml version="1.0" encoding="UTF-8" standalone="no"?>
<svg
   xmlns:dc="http://purl.org/dc/elements/1.1/"
   xmlns:cc="http://creativecommons.org/ns#"
   xmlns:rdf="http://www.w3.org/1999/02/22-rdf-syntax-ns#"
   xmlns:svg="http://www.w3.org/2000/svg"
   xmlns="http://www.w3.org/2000/svg"
   xmlns:sodipodi="http://sodipodi.sourceforge.net/DTD/sodipodi-0.dtd"
   xmlns:inkscape="http://www.inkscape.org/namespaces/inkscape"
   version="1.1"
   id="svg2"
   viewBox="0 0 396.44354 380.78164"
   height="107.46504mm"
   width="111.88518mm"
   inkscape:version="0.48.4 r9939"
   sodipodi:docname="minus-icon.svg">
  <sodipodi:namedview
     pagecolor="#ffffff"
     bordercolor="#666666"
     borderopacity="1"
     objecttolerance="10"
     gridtolerance="10"
     guidetolerance="10"
     inkscape:pageopacity="0"
     inkscape:pageshadow="2"
     inkscape:window-width="1855"
     inkscape:window-height="1056"
     id="namedview4271"
     showgrid="false"
     inkscape:zoom="1.2395556"
     inkscape:cx="148.82776"
     inkscape:cy="75.046453"
     inkscape:window-x="65"
     inkscape:window-y="24"
     inkscape:window-maximized="1"
     inkscape:current-layer="svg2"
     showguides="true"
     inkscape:guide-bbox="true" />
  <defs
     id="defs4" />
  <metadata
     id="metadata7">
    <rdf:RDF>
      <cc:Work
         rdf:about="">
        <dc:format>image/svg+xml</dc:format>
        <dc:type
           rdf:resource="http://purl.org/dc/dcmitype/StillImage" />
        <dc:title></dc:title>
      </cc:Work>
    </rdf:RDF>
  </metadata>
  <path
     style="fill:#ff8080;fill-opacity:1;stroke:none"
     d="m 197.11716,375.15297 c -0.25513,-0.39545 -2.90095,-0.63639 -6.96061,-0.63389 -7.03919,0.005 -25.95289,-1.64465 -26.45766,-2.30676 -0.16846,-0.22097 -3.88447,-0.99844 -8.2578,-1.72773 -4.37334,-0.72926 -8.09472,-1.51383 -8.26976,-1.74346 -0.17502,-0.22962 -2.52349,-0.92551 -5.21881,-1.54641 -2.69534,-0.62092 -5.03843,-1.28743 -5.20689,-1.48115 -0.39712,-0.4567 -6.62165,-2.34809 -7.72751,-2.34809 -0.46669,0 -0.84853,-0.25389 -0.84853,-0.5642 0,-0.3103 -1.09941,-0.84779 -2.44314,-1.1944 -1.34372,-0.34662 -3.79575,-1.28103 -5.44897,-2.07649 -1.65322,-0.79544 -3.2907,-1.44626 -3.63885,-1.44626 -0.34815,0 -0.99726,-0.34244 -1.44247,-0.76096 -0.44521,-0.41853 -2.46343,-1.39643 -4.48492,-2.17314 -2.02149,-0.77669 -4.0397,-1.7546 -4.48492,-2.17312 -0.44521,-0.41854 -1.20326,-0.76096 -1.68458,-0.76096 -0.48131,0 -1.37529,-0.46212 -1.98663,-1.02694 -0.61135,-0.56481 -2.19638,-1.55253 -3.522304,-2.19495 -1.325925,-0.6424 -2.548595,-1.33175 -2.717058,-1.53187 -0.168455,-0.2001 -1.20217,-0.80357 -2.297147,-1.34102 -1.094977,-0.53745 -1.990867,-1.17216 -1.990867,-1.41049 0,-0.23832 -1.102631,-0.89094 -2.450294,-1.45023 -1.347661,-0.55931 -2.450298,-1.26398 -2.450298,-1.56592 0,-0.30197 -0.502716,-0.70189 -1.117157,-0.88869 -0.614441,-0.18682 -1.648156,-0.80596 -2.297154,-1.37585 -0.648998,-0.56988 -2.144797,-1.6854 -3.324005,-2.47889 -3.02648,-2.03657 -4.301166,-3.02737 -5.841118,-4.54025 -0.739182,-0.72619 -1.53886,-1.32035 -1.777058,-1.32035 -0.890644,0 -14.821803,-13.11815 -20.253937,-19.07193 -1.68458,-1.84635 -3.820934,-4.0939 -4.747447,-4.99456 -0.926522,-0.90064 -1.684581,-1.83449 -1.684581,-2.07519 0,-0.2407 -0.964799,-1.56555 -2.144006,-2.94411 -1.17921,-1.37856 -2.144009,-2.78283 -2.144009,-3.12059 0,-0.33776 -0.551319,-0.89676 -1.225146,-1.24222 -0.673836,-0.34546 -1.225155,-0.96512 -1.225155,-1.37704 0,-0.41191 -0.496207,-1.26084 -1.102683,-1.88652 -0.606476,-0.62567 -1.640198,-2.06182 -2.297154,-3.19143 -0.656956,-1.12964 -1.539035,-2.26505 -1.960183,-2.52315 -0.421142,-0.25809 -0.765714,-0.85224 -0.765714,-1.32033 0,-0.4681 -0.482403,-1.31807 -1.072007,-1.88884 -0.589604,-0.57078 -1.623319,-2.15216 -2.297154,-3.51418 -0.673828,-1.36202 -1.39828,-2.47943 -1.609886,-2.48314 -0.211607,-0.004 -1.003281,-1.59113 -1.759268,-3.52763 -0.755993,-1.9365 -1.562118,-3.52091 -1.791402,-3.52091 -0.229277,0 -0.912504,-1.32033 -1.518266,-2.93409 -0.605762,-1.61375 -1.299029,-2.93408 -1.540576,-2.93408 -0.241555,0 -0.917099,-1.45238 -1.501221,-3.2275 -0.584113,-1.77512 -1.258131,-3.2275 -1.49781,-3.2275 -0.239672,0 -0.962302,-1.78246 -1.605832,-3.96102 -0.643531,-2.17856 -1.390732,-4.10424 -1.660434,-4.27929 -0.26971,-0.17505 -0.980206,-2.15557 -1.578876,-4.40115 -0.598679,-2.24556 -1.251799,-4.21488 -1.451386,-4.37625 -0.199579,-0.16139 -0.870196,-2.40595 -1.490256,-4.98795 -0.620053,-2.58199 -1.3028708,-4.82658 -1.517371,-4.98796 -0.4577633,-0.34439 -1.542717,-6.34143 -2.4948505,-13.79021 -0.371292,-2.90474 -0.9395819,-5.81582 -1.2628622,-6.46907 -1.4905137,-3.01182 -1.4844089,-45.67207 0.00683,-46.61172 0.2789663,-0.17579 0.6957113,-2.12046 0.9260888,-4.32149 0.5703629,-5.44913 2.1056386,-13.93055 2.7809849,-15.36312 0.3043049,-0.6455 1.0422877,-3.3522 1.6399627,-6.01488 0.597683,-2.66269 1.279082,-4.84125 1.514228,-4.84125 0.235138,0 0.572914,-0.72618 0.750602,-1.61375 0.554608,-2.7703 1.837743,-6.88167 2.243501,-7.18851 0.213392,-0.16137 0.900773,-1.94384 1.527516,-3.96102 0.626742,-2.0172 1.341763,-3.66762 1.588944,-3.66762 0.247173,0 0.944844,-1.5844 1.550378,-3.5209 0.605527,-1.9365 1.287009,-3.52091 1.514387,-3.52091 0.227378,0 0.887158,-1.1883 1.46617,-2.64068 0.579011,-1.45237 1.246225,-2.64068 1.482693,-2.64068 0.236474,0 1.100034,-1.71644 1.919021,-3.81431 0.818987,-2.09787 1.663479,-3.814319 1.876651,-3.814319 0.213163,0 0.911843,-1.120128 1.552617,-2.489176 0.640767,-1.369041 1.647435,-2.953446 2.237039,-3.5209 0.589604,-0.567453 1.072007,-1.414714 1.072007,-1.882798 0,-0.468092 0.376137,-1.062242 0.835867,-1.320344 0.45973,-0.2581 1.293781,-1.327491 1.853454,-2.376429 0.559671,-1.048937 1.234714,-1.90716 1.500096,-1.90716 0.265375,0 0.869922,-0.945865 1.343434,-2.101926 0.473511,-1.156052 1.351938,-2.353655 1.952058,-2.661321 0.600121,-0.307672 1.091127,-0.943974 1.091127,-1.414008 0,-0.470035 0.55132,-1.184436 1.225147,-1.587558 0.673835,-0.403121 1.225146,-0.944186 1.225146,-1.202365 0,-0.744052 2.622258,-4.098818 4.134875,-5.289925 0.758059,-0.596935 1.378295,-1.292839 1.378295,-1.546467 0,-0.583529 6.345207,-7.177385 11.945188,-12.413278 9.557889,-8.936475 10.681348,-9.926305 11.266305,-9.926305 0.335179,0 0.969628,-0.466703 1.409873,-1.037125 0.440247,-0.570422 1.576948,-1.512315 2.525991,-2.093102 0.949043,-0.58078 2.210227,-1.500431 2.802626,-2.043662 1.926469,-1.766569 4.629851,-3.719235 6.038738,-4.361792 0.758059,-0.34573 1.378295,-0.843682 1.378295,-1.106562 0,-0.262879 1.240461,-1.019296 2.756577,-1.680926 1.516119,-0.661636 2.756581,-1.434281 2.756581,-1.716997 0,-0.282708 1.23943,-1.002296 2.754287,-1.599079 1.514857,-0.596783 2.75532,-1.296586 2.75658,-1.555116 0.0015,-0.25853 0.967108,-0.856228 2.146311,-1.328212 1.1792,-0.471991 2.144,-1.092166 2.144,-1.37817 0,-0.286005 1.37829,-0.99479 3.06288,-1.575091 1.68457,-0.580292 3.06286,-1.240466 3.06286,-1.467043 0,-0.226583 1.37829,-0.88675 3.06288,-1.467042 1.68457,-0.5803 3.06286,-1.234794 3.06286,-1.454431 0,-0.219643 1.72287,-1.008981 3.82859,-1.754086 2.10573,-0.745106 3.96643,-1.528849 4.13488,-1.741656 0.16845,-0.212813 1.96024,-0.873214 3.98172,-1.46756 2.02151,-0.594346 3.81329,-1.236349 3.98174,-1.426664 0.16845,-0.190323 1.96024,-0.830597 3.98172,-1.422832 2.02151,-0.592236 3.95111,-1.282461 4.28802,-1.533818 0.33694,-0.251366 2.81785,-0.919514 5.51318,-1.484764 2.69532,-0.565252 5.03842,-1.1989426 5.20688,-1.4082066 0.34712,-0.4312124 10.76276,-2.3864899 12.7127,-2.3864899 0.70092,0 1.36629,-0.2337402 1.47859,-0.5194167 0.29063,-0.7392857 18.58328,-2.4235793 26.26922,-2.4187421 4.33525,0.00289 6.71304,-0.2357776 7.22325,-0.7245417 0.54108,-0.5183407 0.88582,-0.542563 1.19451,-0.083949 0.27031,0.4015862 4.24519,0.7719094 10.5414,0.9821114 11.40229,0.3806593 22.66524,1.5040024 22.66524,2.2605781 0,0.2771807 0.73428,0.5039596 1.63175,0.5039596 2.16133,0 12.67915,1.9059163 13.07003,2.3684076 0.16846,0.1993124 2.37372,0.833484 4.90058,1.409267 2.52689,0.575784 4.86997,1.253301 5.20689,1.505597 0.33691,0.252297 2.40436,0.930081 4.5943,1.506192 2.18995,0.576102 4.11957,1.215139 4.28801,1.420074 0.16847,0.204937 1.89133,0.842817 3.8286,1.417515 1.93727,0.574699 3.5223,1.234423 3.5223,1.466046 0,0.231632 1.66835,0.899888 3.70745,1.48501 2.0391,0.585122 4.03763,1.365965 4.44117,1.735197 0.40353,0.369239 1.97416,1.187513 3.49028,1.818381 1.51613,0.630875 2.89442,1.322713 3.06288,1.537404 0.16845,0.214697 1.33381,0.800184 2.58967,1.301088 1.25587,0.500897 2.63415,1.204803 3.06286,1.564237 0.42873,0.359427 1.74429,1.149194 2.9235,1.755033 1.1792,0.605839 3.31556,1.700667 4.74745,2.432963 1.4319,0.732289 2.60344,1.524362 2.60344,1.76016 0,0.235792 1.24046,1.022184 2.75658,1.747534 1.51612,0.725349 2.75657,1.479146 2.75657,1.675099 0,0.195952 0.86506,0.845791 1.92235,1.444086 1.05729,0.598295 2.36667,1.455324 2.90973,1.904519 4.11229,3.401452 5.29083,4.302531 5.62736,4.302531 0.21186,0 1.32196,0.814048 2.46692,1.808997 1.14494,0.994951 3.59784,3.126606 5.45088,4.73701 7.16624,6.227919 17.79336,16.727585 18.24982,18.03095 0.0984,0.280949 1.54391,1.929884 3.21225,3.664303 1.66835,1.734417 3.03505,3.455328 3.03712,3.824224 0.002,0.368913 0.42138,0.824269 0.93181,1.0119 0.51044,0.187638 1.19276,1.008086 1.51628,1.823233 0.32353,0.815146 0.82184,1.482085 1.10737,1.482085 0.28554,0 1.13868,1.188306 1.89587,2.640677 0.75718,1.452372 1.58196,2.640678 1.83284,2.640678 0.25087,0 0.91623,0.92424 1.47855,2.053867 0.56233,1.129619 1.23361,2.056363 1.49175,2.059418 0.25813,0.0029 1.01352,1.191361 1.67863,2.640677 0.66512,1.449313 1.38164,2.635124 1.59226,2.635124 0.21064,0 0.89452,1.188305 1.51974,2.640677 0.62523,1.452372 1.32824,2.640685 1.56223,2.640685 0.234,0 0.92109,1.32034 1.52686,2.93409 0.60576,1.61374 1.2998,2.93408 1.54229,2.93408 0.24249,0 0.91463,1.18831 1.49364,2.64068 0.57902,1.45238 1.2298,2.64068 1.44619,2.64068 0.21639,0 1.04892,1.98051 1.85007,4.40113 0.80115,2.42063 1.65867,4.40114 1.90562,4.40114 0.24692,0 0.94502,1.78245 1.55131,3.96101 0.60632,2.17856 1.28206,4.09307 1.50166,4.25444 0.2196,0.16136 0.90875,2.14189 1.53144,4.40112 0.62268,2.25926 1.29595,4.23977 1.49616,4.40114 0.43434,0.3501 1.6269,5.11159 2.20461,8.80226 0.22734,1.45238 0.62495,2.77271 0.88357,2.9341 0.25864,0.16137 0.94846,3.7263 1.53295,7.92203 0.58451,4.19575 1.37285,8.26276 1.7519,9.03781 1.03685,2.12006 0.96443,45.35055 -0.0766,45.68295 -0.42114,0.13447 -0.76251,0.94869 -0.75859,1.80935 0.0112,2.45448 -2.01958,15.02827 -2.47996,15.35508 -0.22732,0.16136 -0.59995,1.34966 -0.82807,2.64067 -0.66364,3.75588 -1.83354,8.19042 -2.24478,8.50885 -0.2084,0.16138 -0.85673,2.13684 -1.44072,4.38991 -0.58399,2.25309 -1.28512,4.36564 -1.55806,4.69455 -0.27293,0.32893 -0.97042,2.18245 -1.54996,4.11894 -0.57955,1.9365 -1.24492,3.65295 -1.47858,3.81431 -0.23367,0.16138 -1.09578,2.20791 -1.91578,4.54786 -0.82,2.33992 -1.67637,4.25442 -1.90301,4.25442 -0.22665,0 -0.90771,1.32033 -1.51348,2.93408 -0.60578,1.61376 -1.29491,2.93409 -1.53143,2.93409 -0.23653,0 -0.92568,1.32034 -1.53144,2.9341 -0.60577,1.61374 -1.28073,2.93408 -1.49993,2.93408 -0.21918,0 -0.89574,1.05627 -1.50345,2.34727 -0.60772,1.29099 -1.26982,2.3503 -1.47132,2.35401 -0.20152,0.004 -0.9134,1.12598 -1.58196,2.49398 -0.66855,1.36798 -1.56443,2.69841 -1.99086,2.9565 -0.42642,0.2581 -0.77532,0.80247 -0.77532,1.20969 0,0.40724 -0.54772,1.30361 -1.21716,1.99196 -0.66944,0.68834 -1.79991,2.32254 -2.51214,3.63155 -0.71225,1.30902 -1.54964,2.38003 -1.86087,2.38003 -0.31125,0 -0.83058,0.66693 -1.15411,1.48209 -0.32352,0.81514 -1.00584,1.63559 -1.51627,1.82322 -0.51044,0.18764 -0.92805,0.6158 -0.92805,0.95147 0,1.16016 -9.5642,11.79294 -16.94697,18.8404 -3.87904,3.70287 -5.79862,5.40279 -13.01413,11.52507 -3.04257,2.58155 -4.49538,3.64659 -6.58719,4.82888 -1.12413,0.63537 -2.04388,1.33315 -2.04388,1.55063 0,0.21748 -0.9648,0.89315 -2.144,1.50149 -1.17921,0.60835 -2.14402,1.28607 -2.14402,1.50608 0,0.22 -1.09947,0.90461 -2.44327,1.52134 -1.3438,0.61673 -2.44643,1.31261 -2.4503,1.54639 -0.004,0.23377 -0.9029,0.86476 -1.99788,1.40221 -1.09498,0.53745 -2.1287,1.14092 -2.29715,1.34102 -0.16847,0.20012 -1.40473,0.88947 -2.74724,1.53187 -1.34253,0.64242 -2.79262,1.48202 -3.22245,1.8658 -0.42982,0.38376 -1.7434,1.03095 -2.91907,1.43822 -1.17566,0.40725 -2.13758,0.90289 -2.13758,1.1014 0,0.19853 -1.58504,0.98827 -3.5223,1.75501 -1.93726,0.76672 -3.85164,1.70609 -4.25415,2.08749 -0.40254,0.38139 -1.98758,1.04862 -3.52232,1.48273 -1.53474,0.4341 -2.79043,0.95955 -2.79043,1.16765 0,0.2081 -1.51612,0.8352 -3.36915,1.39355 -1.85304,0.55834 -3.36917,1.21263 -3.36917,1.45399 0,0.24134 -1.44887,0.74943 -3.21971,1.12907 -1.77087,0.37963 -3.90865,1.03263 -4.75067,1.45111 -0.84201,0.41848 -3.59694,1.26442 -6.12203,1.87991 -2.52509,0.61547 -4.73759,1.31305 -4.91666,1.5502 -0.17906,0.23714 -4.03828,1.03357 -8.57604,1.76987 -4.53774,0.73628 -8.38927,1.51657 -8.55895,1.73398 -0.53001,0.67913 -18.66103,2.26098 -25.91527,2.26098 -4.1638,0 -7.18154,0.25389 -7.58244,0.63795 -0.47956,0.45938 -0.78115,0.45938 -1.07753,0 z m 12.52478,-62.2538 c 0,-0.32276 1.1214,-0.58683 2.49202,-0.58683 3.75545,0 16.1624,-1.83049 16.39567,-2.41897 0.11231,-0.28332 0.62418,-0.51512 1.1375,-0.51512 1.84352,0 9.37837,-1.96305 9.37837,-2.44336 0,-0.26989 0.38183,-0.49073 0.84851,-0.49073 1.21305,0 7.36236,-1.91652 7.72753,-2.40842 0.16844,-0.2269 1.9421,-0.96325 3.94143,-1.63634 1.99934,-0.67306 3.79112,-1.43969 3.98173,-1.70362 0.19061,-0.26391 1.31138,-0.83842 2.49059,-1.27669 1.1792,-0.43827 2.55749,-1.11762 3.06286,-1.50967 0.50539,-0.39205 1.85774,-1.16883 3.00526,-1.72619 1.1475,-0.55735 2.64668,-1.51344 3.33151,-2.12462 0.68483,-0.61119 1.6153,-1.11126 2.06773,-1.11126 0.45241,0 0.97081,-0.37008 1.152,-0.82239 0.18119,-0.45233 0.79277,-0.9728 1.35907,-1.15661 1.16508,-0.37815 2.80934,-1.38386 4.56886,-2.79453 0.65804,-0.52757 2.06053,-1.65215 3.11662,-2.49903 3.15695,-2.53158 16.43645,-15.23052 19.07226,-18.23845 1.34767,-1.53792 2.99601,-3.62294 3.663,-4.63338 0.66698,-1.01045 1.70071,-2.34908 2.29716,-2.97476 0.59644,-0.62566 1.08445,-1.47076 1.08445,-1.878 0,-0.40721 0.3473,-0.95159 0.77177,-1.20968 0.42449,-0.2581 1.32038,-1.52555 1.99087,-2.81655 0.67049,-1.29099 1.38736,-2.47929 1.59304,-2.64067 0.20567,-0.16138 0.86436,-1.21765 1.46377,-2.34727 0.59939,-1.12963 1.28337,-2.1859 1.51993,-2.34727 0.23658,-0.16138 0.92471,-1.54774 1.5292,-3.0808 0.60447,-1.53306 1.27178,-2.78739 1.4829,-2.78739 0.21112,0 0.897,-1.71643 1.52418,-3.81431 0.62716,-2.09787 1.33591,-3.81432 1.57496,-3.81432 0.23905,0 1.09777,-2.57465 1.90825,-5.72147 0.81048,-3.14681 1.64535,-5.8535 1.85529,-6.01488 0.47862,-0.36791 2.39113,-10.30965 2.38944,-12.42098 -6e-4,-0.86065 0.34334,-1.67486 0.76448,-1.80931 0.58936,-0.18818 0.76571,-4.20874 0.76571,-17.45779 0,-13.24899 -0.17635,-17.26962 -0.76571,-17.45786 -0.42114,-0.1345 -0.76573,-0.96821 -0.76573,-1.8527 0,-2.26163 -1.89459,-12.60983 -2.3736,-12.96449 -0.21796,-0.16139 -1.0594,-2.86807 -1.86988,-6.01489 -0.81048,-3.1468 -1.65974,-5.72147 -1.88722,-5.72147 -0.2275,0 -0.9144,-1.58441 -1.52647,-3.5209 -0.61206,-1.9365 -1.29039,-3.52091 -1.50741,-3.52091 -0.21702,0 -0.8902,-1.32035 -1.49598,-2.93409 -0.60575,-1.61375 -1.29398,-2.93409 -1.52938,-2.93409 -0.23539,0 -0.77582,-0.92146 -1.20095,-2.0477 -0.42512,-1.12624 -1.10273,-2.38057 -1.50577,-2.78739 -0.40305,-0.40681 -1.28215,-1.85893 -1.95354,-3.22692 -0.67139,-1.36798 -1.42039,-2.49028 -1.66443,-2.49399 -0.24404,-0.004 -0.87892,-0.81297 -1.41086,-1.79838 -0.53195,-0.98541 -1.37871,-2.23973 -1.88169,-2.78738 -0.503,-0.54765 -2.2066,-2.69833 -3.78578,-4.77928 -2.60843,-3.43723 -15.81389,-16.396284 -20.36252,-19.982562 -1.02339,-0.806875 -2.35933,-1.863145 -2.96876,-2.347269 -1.59165,-1.264405 -3.24688,-2.265597 -4.82912,-2.920971 -0.75807,-0.313986 -1.37828,-0.841491 -1.37828,-1.17223 0,-0.330738 -0.30461,-0.601344 -0.67689,-0.601344 -0.37228,0 -1.9432,-0.818695 -3.49093,-1.819326 -1.54774,-1.000639 -3.3795,-2.056275 -4.07058,-2.345872 -0.69108,-0.289598 -1.70959,-0.838191 -2.26336,-1.21909 -1.27552,-0.877359 -2.27864,0.0051 -4.14441,3.646139 -1.89898,3.705828 -3.57538,6.625489 -4.20861,7.329846 -0.29854,0.332056 -1.03982,1.850445 -1.64728,3.374199 -0.60746,1.523751 -1.30875,2.770458 -1.55839,2.770458 -0.24966,0 -1.07379,1.386355 -1.8314,3.080792 -0.7576,1.69443 -1.55379,3.21283 -1.76929,3.37421 -0.2155,0.16137 -0.93897,1.41267 -1.60769,2.78065 -0.66874,1.36798 -1.39493,2.49027 -1.61378,2.49397 -0.21885,0.004 -0.89354,1.32707 -1.4993,2.94082 -0.60577,1.61375 -1.35634,2.93409 -1.66796,2.93409 -1.19455,0 1.00526,1.73161 3.00159,2.36276 1.15227,0.36429 2.09502,0.89354 2.09502,1.17612 0,0.28258 0.9648,0.95236 2.14401,1.48841 1.1792,0.53603 2.14401,1.167 2.14401,1.40215 0,0.23516 0.97779,0.93127 2.17287,1.5469 1.19509,0.61563 2.57974,1.71349 3.07699,2.43967 0.49726,0.72619 1.20369,1.32035 1.56984,1.32035 0.94268,0 9.55137,8.69676 12.47638,12.60401 1.34765,1.80023 3.07018,3.99188 3.82783,4.87036 0.75766,0.87845 1.37788,1.90842 1.37829,2.28881 4.1e-4,0.38038 0.35021,1.04055 0.77732,1.46704 0.4271,0.4265 1.31539,1.96375 1.97396,3.41612 0.65855,1.45237 1.38403,2.77271 1.61214,2.93408 0.2281,0.16139 0.88768,1.67978 1.46571,3.37421 0.57803,1.69444 1.25974,3.0808 1.51493,3.0808 0.25517,0 0.96315,2.31059 1.57326,5.13465 0.61012,2.82406 1.3003,5.26668 1.53373,5.42805 0.81201,0.56132 1.80117,10.20927 1.79946,17.55115 -0.002,7.59486 -1.00187,17.72391 -1.80141,18.24475 -0.24772,0.16137 -0.78908,2.00985 -1.20299,4.10772 -0.41393,2.09787 -1.23066,4.73855 -1.81497,5.86817 -0.5843,1.12963 -1.43666,3.17616 -1.89414,4.54784 -0.45746,1.37169 -1.02584,2.49398 -1.26306,2.49398 -0.23721,0 -0.92833,1.24676 -1.53582,2.77055 -0.60748,1.52379 -1.60973,3.29003 -2.22723,3.92496 -0.61749,0.63492 -1.12271,1.45966 -1.12271,1.83272 0,0.37307 -0.68881,1.44557 -1.5307,2.38333 -0.84187,0.93776 -1.53102,1.88421 -1.53143,2.10321 -4e-4,0.21902 -0.34532,0.74716 -0.76646,1.17365 -0.42115,0.42649 -1.57881,1.83169 -2.57257,3.1227 -2.2158,2.87854 -9.80941,10.26932 -10.55114,10.26932 -0.29674,0 -1.27714,0.72618 -2.17865,1.61373 -2.11446,2.08172 -3.71456,3.36526 -4.80623,3.85543 -1.33449,0.59916 -3.12513,1.7564 -4.47645,2.89298 -0.67151,0.56482 -1.56277,1.02694 -1.98053,1.02694 -0.41778,0 -1.12387,0.34392 -1.56908,0.76427 -0.44521,0.42037 -2.04913,1.23654 -3.56427,1.81372 -1.51513,0.57719 -2.89343,1.24853 -3.06287,1.49186 -0.16944,0.24335 -2.37551,1.03867 -4.90238,1.76739 -2.52688,0.72873 -4.73214,1.53185 -4.9006,1.78472 -0.34605,0.51942 -10.93296,2.35394 -13.58457,2.35394 -0.95139,0 -1.72978,0.26408 -1.72978,0.58681 0,0.36677 -3.67545,0.58682 -9.80118,0.58682 -6.12574,0 -9.80119,-0.22005 -9.80119,-0.58682 0,-0.32273 -0.88003,-0.58681 -1.95561,-0.58681 -2.77861,0 -13.35874,-1.86998 -13.35874,-2.36108 0,-0.22547 -2.20526,-1.01146 -4.90058,-1.74665 -2.69534,-0.73519 -4.9006,-1.52821 -4.9006,-1.76226 0,-0.23406 -1.3092,-0.90453 -2.90933,-1.48994 -1.60014,-0.58539 -3.27378,-1.41347 -3.7192,-1.84016 -0.44543,-0.4267 -1.15168,-0.77581 -1.56947,-0.77581 -0.41777,0 -1.30902,-0.46212 -1.98054,-1.02694 -1.63947,-1.37894 -3.38415,-2.45656 -4.634,-2.86224 -0.5663,-0.18381 -1.17789,-0.70428 -1.35906,-1.15659 -0.18119,-0.45233 -0.65298,-0.82242 -1.0484,-0.82242 -0.39542,0 -1.57561,-0.78485 -2.62266,-1.74412 -1.04704,-0.95927 -3.7644,-3.39069 -6.03858,-5.40314 -2.27419,-2.01246 -4.13488,-3.84673 -4.13488,-4.07617 0,-0.22943 -1.10263,-1.51651 -2.45029,-2.86018 -1.34767,-1.34369 -2.45031,-2.63577 -2.45031,-2.87133 0,-0.23556 -0.48239,-0.94019 -1.07199,-1.56586 -0.58961,-0.62567 -1.6171,-2.12784 -2.28331,-3.33815 -0.66622,-1.21031 -1.38684,-2.20057 -1.60136,-2.20057 -0.21453,0 -0.89004,-1.25415 -1.50115,-2.78701 -0.6111,-1.53286 -1.4295,-3.09205 -1.81868,-3.46487 -0.38919,-0.37282 -1.19275,-2.15544 -1.78573,-3.96139 -0.59298,-1.80594 -1.29299,-3.28354 -1.5556,-3.28354 -0.2626,0 -0.97664,-2.31059 -1.58677,-5.13466 -0.61009,-2.82405 -1.30029,-5.26668 -1.53372,-5.42805 -0.82567,-0.57079 -1.80118,-10.26411 -1.80118,-17.89794 0,-7.63385 0.97551,-17.32716 1.80118,-17.89796 0.23343,-0.16137 0.92363,-2.60399 1.53372,-5.42805 0.61013,-2.82406 1.32417,-5.13465 1.58677,-5.13465 0.26261,0 0.96262,-1.4776 1.5556,-3.28355 0.59298,-1.80594 1.39654,-3.58857 1.78573,-3.96138 0.38918,-0.37282 1.20758,-1.93201 1.81868,-3.46487 0.61111,-1.53285 1.28202,-2.78702 1.49092,-2.78702 0.20889,0 0.73607,-0.77104 1.17153,-1.71342 0.43546,-0.94238 1.60098,-2.59282 2.59005,-3.66761 0.98907,-1.07481 1.80272,-2.14292 1.80811,-2.3736 0.0129,-0.55278 1.39728,-2.01277 8.15343,-8.59865 7.22872,-7.04655 7.98565,-7.70624 8.84208,-7.70624 0.3902,0 1.06965,-0.47416 1.5099,-1.05371 0.44024,-0.57954 1.7962,-1.49891 3.01322,-2.04303 1.21701,-0.54412 2.56014,-1.3903 2.98472,-1.88038 0.4246,-0.49009 1.09903,-0.89106 1.49876,-0.89106 0.39971,0 1.22696,-0.35037 1.83829,-0.77861 1.06779,-0.74794 1.05941,-0.89149 -0.21259,-3.64616 -0.72829,-1.57717 -1.6817,-3.27332 -2.11871,-3.76924 -0.43702,-0.49591 -1.1689,-1.8259 -1.62642,-2.95552 -0.4575,-1.12963 -1.01507,-2.1859 -1.23903,-2.34727 -0.22398,-0.16138 -0.99127,-1.48172 -1.70511,-2.93409 -1.51496,-3.082373 -3.48928,-6.491454 -4.25788,-7.352146 -0.29654,-0.332062 -1.0294,-1.833474 -1.62861,-3.336487 -0.59919,-1.503005 -1.41845,-2.853694 -1.82058,-3.001508 -0.40213,-0.147828 -1.10471,-1.353104 -1.5613,-2.6784 -0.45658,-1.325296 -1.04311,-2.409628 -1.3034,-2.409628 -0.26029,0 -0.64823,-0.528138 -0.86209,-1.173634 -0.38261,-1.154831 -2.75659,-1.694251 -2.75659,-0.626366 0,0.301003 -0.49064,0.69645 -1.09031,0.878779 -1.20846,0.36742 -7.28135,3.963369 -8.69099,5.146213 -0.49446,0.414889 -1.80498,1.21951 -2.9123,1.788041 -1.10731,0.56853 -2.55549,1.494706 -3.21816,2.058166 -0.66268,0.56346 -2.04575,1.684643 -3.0735,2.491518 -7.43211,5.834926 -23.282339,22.158562 -23.282339,23.977722 0,0.36774 -0.268579,0.66862 -0.596841,0.66862 -0.328269,0 -1.054754,0.85822 -1.614427,1.90716 -0.559671,1.04893 -1.393724,2.11833 -1.853453,2.37643 -0.45973,0.25809 -0.835872,0.80246 -0.835872,1.20969 0,0.40722 -0.491424,1.25232 -1.092046,1.87799 -0.600629,0.62567 -1.606181,2.19386 -2.234564,3.48486 -0.628381,1.291 -1.325634,2.4793 -1.549451,2.64068 -0.22381,0.16137 -1.060505,1.87782 -1.859331,3.81432 -0.798819,1.9365 -1.791591,4.04904 -2.206171,4.69454 -0.414582,0.64551 -1.096884,2.29593 -1.516233,3.66761 -0.419349,1.37168 -0.941344,2.49397 -1.159982,2.49397 -0.218646,0 -0.910098,1.91449 -1.536566,4.25444 -0.626461,2.33993 -1.325902,4.38645 -1.554305,4.54782 -0.228403,0.16139 -0.89362,2.80206 -1.478251,5.86819 -0.584637,3.06612 -1.311208,6.1029 -1.61461,6.74839 -0.930516,1.97974 -1.80077,12.84643 -1.802532,22.50796 -0.0015,9.16112 1.021224,21.82786 1.807582,22.38361 0.228335,0.16137 0.926371,3.0001 1.551184,6.30828 0.624813,3.3082 1.310343,6.01489 1.523385,6.01489 0.213043,0 0.902185,1.98051 1.531418,4.40113 0.629233,2.42062 1.329948,4.40113 1.557137,4.40113 0.227203,0 0.761786,1.12229 1.187985,2.49398 0.426199,1.37169 1.538473,4.07839 2.471714,6.01488 0.933257,1.9365 1.887221,4.11506 2.119929,4.84125 0.232709,0.72619 0.638323,1.32033 0.901366,1.32033 0.263042,0 0.998922,1.1223 1.635286,2.49399 0.636369,1.37168 1.643044,3.00588 2.237046,3.63155 0.594007,0.62567 1.08001,1.47077 1.08001,1.878 0,0.40722 0.344577,0.95159 0.765719,1.20969 0.421142,0.2581 1.296271,1.39351 1.94473,2.52313 0.64846,1.12963 1.353587,2.1859 1.56694,2.34728 0.213361,0.16136 0.848972,0.95357 1.412455,1.76045 2.575636,3.68814 19.316258,20.53862 20.404708,20.53862 0.32225,0 1.3235,0.72618 2.22502,1.61375 2.64629,2.60532 5.48038,4.61462 7.36286,5.22013 0.5896,0.18965 1.07201,0.58236 1.07201,0.87269 0,0.29032 0.9648,0.9686 2.14401,1.50729 1.1792,0.53867 2.14401,1.15447 2.14401,1.36842 0,0.21396 1.10263,0.86532 2.45029,1.44748 1.34766,0.58216 2.4503,1.2606 2.4503,1.50764 0,0.24704 1.24046,0.90298 2.75658,1.45764 1.51613,0.55468 2.75659,1.20357 2.75659,1.442 0,0.23842 1.9296,1.02786 4.28801,1.7543 2.35841,0.72645 4.28802,1.49325 4.28802,1.70399 0,0.38834 6.53114,2.40374 7.78957,2.40374 0.3764,0 0.77625,0.26266 0.88856,0.58367 0.11231,0.32102 2.40945,1.03397 5.10478,1.58435 2.69532,0.55039 5.03842,1.17868 5.20688,1.39623 0.3951,0.51024 13.23922,2.30393 16.49778,2.30393 1.37061,0 2.49201,0.26407 2.49201,0.58683 0,0.37061 4.28803,0.58681 11.63891,0.58681 7.3509,0 11.63891,-0.2162 11.63891,-0.58681 l 0,0 z m 9.80118,-211.84121 0,-57.508139 -21.44009,0 -21.44008,0 0,57.508139 0,57.50813 21.44008,0 21.44009,0 0,-57.50813 z"
     id="path3087"
     inkscape:connector-curvature="0" />
</svg>
