<?xml version="1.0" encoding="UTF-8" standalone="no"?>
<!-- Created with Inkscape (http://www.inkscape.org/) -->

<svg
   xmlns:dc="http://purl.org/dc/elements/1.1/"
   xmlns:cc="http://creativecommons.org/ns#"
   xmlns:rdf="http://www.w3.org/1999/02/22-rdf-syntax-ns#"
   xmlns:svg="http://www.w3.org/2000/svg"
   xmlns="http://www.w3.org/2000/svg"
   xmlns:sodipodi="http://sodipodi.sourceforge.net/DTD/sodipodi-0.dtd"
   xmlns:inkscape="http://www.inkscape.org/namespaces/inkscape"
   width="117.99673mm"
   height="112.01828mm"
   viewBox="0 0 418.09864 396.91516"
   id="svg4231"
   version="1.1"
   inkscape:version="0.91 r13725"
   sodipodi:docname="movie-placeholder.svg">
  <defs
     id="defs4233" />
  <sodipodi:namedview
     id="base"
     pagecolor="#ffffff"
     bordercolor="#666666"
     borderopacity="1.0"
     inkscape:pageopacity="0.0"
     inkscape:pageshadow="2"
     inkscape:zoom="0.35"
     inkscape:cx="-165.95064"
     inkscape:cy="-75.828138"
     inkscape:document-units="px"
     inkscape:current-layer="layer1"
     showgrid="false"
     fit-margin-top="0"
     fit-margin-left="0"
     fit-margin-right="0"
     fit-margin-bottom="0"
     inkscape:window-width="1474"
     inkscape:window-height="841"
     inkscape:window-x="54"
     inkscape:window-y="-8"
     inkscape:window-maximized="1" />
  <metadata
     id="metadata4236">
    <rdf:RDF>
      <cc:Work
         rdf:about="">
        <dc:format>image/svg+xml</dc:format>
        <dc:type
           rdf:resource="http://purl.org/dc/dcmitype/StillImage" />
        <dc:title></dc:title>
      </cc:Work>
    </rdf:RDF>
  </metadata>
  <g
     inkscape:label="Layer 1"
     inkscape:groupmode="layer"
     id="layer1"
     transform="translate(-119.52207,-59.618898)">
    <g
       transform="matrix(1.124671,0,0,1.1189771,1152.7945,492.01698)"
       id="g4240-6-7">
      <ellipse
         ry="167.14285"
         rx="175.71428"
         cy="-209.06639"
         cx="-732.85712"
         id="path4230-0-4"
         style="opacity:1;fill:#e5e5e5;fill-opacity:1;stroke:none;stroke-width:2;stroke-miterlimit:4;stroke-dasharray:none;stroke-dashoffset:0;stroke-opacity:1" />
      <g
         transform="matrix(0.4662921,0,0,0.40384604,-960.45401,-404.42119)"
         id="g4236-3-0">
        <path
           style="opacity:1;fill:#fafafa;fill-opacity:1;stroke:none;stroke-width:2;stroke-miterlimit:4;stroke-dasharray:none;stroke-dashoffset:0;stroke-opacity:1"
           d="m 394.6981,482.39075 0,-92.8658 92.1429,46.0397 c 50.6785,25.3218 92.6045,46.466 93.1687,46.9869 1.0048,0.9278 -181.021,92.705 -183.8657,92.705 -0.7953,0 -1.4459,-41.7896 -1.4459,-92.8658 z"
           id="path4232-8-6"
           inkscape:connector-curvature="0" />
        <path
           style="opacity:1;fill:#fafafa;fill-opacity:1;stroke:none;stroke-width:2;stroke-miterlimit:4;stroke-dasharray:none;stroke-dashoffset:0;stroke-opacity:1"
           d="m 234.6981,483.82795 0,-222.8571 254.2857,0 254.2857,0 0,222.8571 0,222.8571 -254.2857,0 -254.2857,0 0,-222.8571 z m 94.28571,175.7143 0,-18.5714 -32.85714,0 -32.85714,0 0,18.5714 0,18.5714 32.85714,0 32.85714,0 0,-18.5714 z m 97.14289,0 0,-18.5714 -32.8572,0 -32.8571,0 0,18.5714 0,18.5714 32.8571,0 32.8572,0 0,-18.5714 z m 95.7143,0 0,-17.1429 -33.5715,-0.8049 -33.5714,-0.805 0,16.7574 c 0,9.2165 0.8969,17.6542 1.9931,18.7504 1.0961,1.0961 16.2033,1.6318 33.5714,1.1904 l 31.5784,-0.8026 0,-17.1428 z m 95.7142,0 0,-18.5714 -32.8571,0 -32.8571,0 0,18.5714 0,18.5714 32.8571,0 32.8571,0 0,-18.5714 z m 96.5673,-0.8062 0.853,-17.949 -33.7101,0.8062 -33.7102,0.8061 -0.8851,13.9227 c -1.427,22.4438 -2.009,22.0856 34.403,21.1714 l 32.1964,-0.8084 0.853,-17.949 z m -0.1096,-175.6224 -0.7434,-129.2857 -225,-0.7316 -224.99997,-0.7316 0,130.0173 0,130.0173 225.74337,0 225.7434,0 -0.7434,-129.2857 z m -385.02909,-176.4286 0,-17.1428 -32.85714,0 -32.85714,0 0,17.1428 0,17.1429 32.85714,0 32.85714,0 0,-17.1429 z m 97.14289,0 0,-17.1428 -32.8572,0 -32.8571,0 0,17.1428 0,17.1429 32.8571,0 32.8572,0 0,-17.1429 z m 96.5711,0.7143 -0.8568,-16.4285 -33.5715,-0.805 -33.5714,-0.805 0,17.2336 0,17.2335 34.4283,0 34.4283,0 -0.8569,-16.4286 z m 94.8574,-0.7143 0,-17.1428 -32.8571,0 -32.8571,0 0,17.1428 0,17.1429 32.8571,0 32.8571,0 0,-17.1429 z m 97.1429,0 0,-17.1428 -34.2857,0 -34.2857,0 0,17.1428 0,17.1429 34.2857,0 34.2857,0 0,-17.1429 z"
           id="path4234-5-5"
           inkscape:connector-curvature="0" />
      </g>
    </g>
  </g>
</svg>
