<?xml version="1.0" encoding="UTF-8" standalone="no"?>
<svg
   xmlns:dc="http://purl.org/dc/elements/1.1/"
   xmlns:cc="http://creativecommons.org/ns#"
   xmlns:rdf="http://www.w3.org/1999/02/22-rdf-syntax-ns#"
   xmlns:svg="http://www.w3.org/2000/svg"
   xmlns="http://www.w3.org/2000/svg"
   xmlns:sodipodi="http://sodipodi.sourceforge.net/DTD/sodipodi-0.dtd"
   xmlns:inkscape="http://www.inkscape.org/namespaces/inkscape"
   version="1.1"
   id="svg2"
   viewBox="0 0 396.44354 380.78164"
   height="107.46504mm"
   width="111.88518mm"
   inkscape:version="0.91 r13725"
   sodipodi:docname="movie-icon.svg">
  <sodipodi:namedview
     pagecolor="#ffffff"
     bordercolor="#666666"
     borderopacity="1"
     objecttolerance="10"
     gridtolerance="10"
     guidetolerance="10"
     inkscape:pageopacity="0"
     inkscape:pageshadow="2"
     inkscape:window-width="1474"
     inkscape:window-height="841"
     id="namedview4271"
     showgrid="false"
     inkscape:zoom="0.61977777"
     inkscape:cx="198.22177"
     inkscape:cy="190.39082"
     inkscape:window-x="54"
     inkscape:window-y="-8"
     inkscape:window-maximized="1"
     inkscape:current-layer="svg2" />
  <defs
     id="defs4" />
  <metadata
     id="metadata7">
    <rdf:RDF>
      <cc:Work
         rdf:about="">
        <dc:format>image/svg+xml</dc:format>
        <dc:type
           rdf:resource="http://purl.org/dc/dcmitype/StillImage" />
        <dc:title></dc:title>
      </cc:Work>
    </rdf:RDF>
  </metadata>
  <path
     style="opacity:1;fill:#ff8080;fill-opacity:1;stroke:none;stroke-width:2.01999998;stroke-miterlimit:4;stroke-dasharray:none;stroke-dashoffset:0;stroke-opacity:1"
     d="m 347.99192,364.81741 c -21.31859,-13.94948 -32.13355,-30.49245 -33.6992,-51.54705 -1.19102,-16.01676 -0.0177,-19.86045 17.66995,-57.87176 18.55554,-39.87694 18.97226,-41.32866 20.23671,-70.48978 1.08729,-25.07558 0.24713,-32.82597 -5.32417,-49.11103 -6.82747,-19.95717 -22.87832,-43.574872 -36.91093,-54.312003 -9.77508,-7.479442 -41.25532,-21.776332 -43.38585,-19.703844 -0.84621,0.823162 1.96576,6.647534 6.24878,12.943176 C 309.56385,128.72439 299.26195,205.13451 249.10694,250.66054 198.82964,296.2974 128.32361,302.55145 70.926108,266.46506 47.601276,251.80054 32.41305,234.52156 19.002122,207.39352 9.3240529,187.81634 8.0312029,182.39784 6.9833557,157.0214 6.0433168,134.25485 7.0534577,124.61216 12.050806,108.65135 26.829253,61.450897 66.018405,25.443298 116.54372,12.641939 c 32.71622,-8.2891084 63.14954,-4.8299637 99.35341,11.292788 9.45703,4.211544 21.43523,7.67677 26.61827,7.700704 15.17283,0.06959 45.94667,8.093473 62.68478,16.344046 44.25301,21.813307 74.73044,75.086253 74.73044,130.625123 0,28.28445 -5.68042,48.54802 -24.77428,88.37677 -9.44758,19.70719 -15.67299,36.75219 -15.70008,42.98656 -0.0577,13.32762 10.03729,27.07018 26.98136,36.72907 14.28161,8.14154 19.1367,16.63233 13.37305,23.38757 -5.74281,6.73117 -16.1038,5.0161 -31.81875,-5.26716 z M 119.56706,247.04029 c 12.83736,-12.48728 8.04767,-43.21846 -8.04141,-51.59426 -9.02534,-4.69849 -31.285081,-0.75042 -40.83888,7.24332 -9.009659,7.53846 -10.749958,21.57832 -3.708039,29.91468 6.995856,8.28172 30.518177,21.62674 38.120099,21.62674 3.8919,0 10.40263,-3.2357 14.46823,-7.19048 z m 90.69475,1.10332 c 15.48358,-7.29106 28.12519,-21.04175 28.12519,-30.59251 0,-3.81455 -3.25453,-10.61594 -7.23233,-15.11433 -6.46534,-7.31152 -9.22014,-8.1831 -25.97925,-8.21936 -16.72144,-0.0364 -19.38726,0.78691 -24.67235,7.61834 -3.91207,5.05665 -6.08488,12.85446 -6.39499,22.95073 -0.41191,13.40967 0.57037,16.16304 7.98004,22.36809 10.28194,8.61059 11.8701,8.66627 28.17369,0.98904 z m -44.20073,-86.7964 c 10.40752,-12.87026 0.69196,-33.08307 -15.90188,-33.08307 -9.25105,0 -20.18855,11.38622 -20.18855,21.01685 0,18.8785 24.07326,26.92703 36.09043,12.06622 z M 77.268246,150.92848 c 11.023249,-5.28959 19.575192,-14.81557 19.575192,-21.8043 0,-26.56532 -31.389177,-49.518757 -46.097665,-33.709199 -7.64529,8.217629 -14.133651,25.735719 -14.133651,38.159959 0,20.62719 17.906305,28.27034 40.656124,17.35354 z m 181.981134,-4.01796 c 7.43806,-9.19812 7.51691,-10.47658 1.80063,-29.20052 -8.50185,-27.848245 -26.65107,-35.817916 -43.73144,-19.203342 -9.17486,8.924662 -16.3493,28.965672 -13.21433,36.912712 3.55314,9.00671 22.81691,19.20981 36.26905,19.20981 10.06215,0 13.90512,-1.57137 18.87609,-7.71866 z M 161.93562,87.045257 c 22.27195,-13.389536 28.99452,-35.214875 14.30816,-46.45212 -9.81364,-7.509003 -41.25249,-8.579279 -51.28206,-1.745832 -17.75966,12.100308 -6.98966,39.934209 20.06676,51.860375 6.45536,2.845506 5.87167,2.971941 16.90714,-3.662423 z"
     id="path4193"
     inkscape:connector-curvature="0" />
</svg>
