<?xml version="1.0" encoding="UTF-8" standalone="no"?>
<svg
   xmlns:dc="http://purl.org/dc/elements/1.1/"
   xmlns:cc="http://creativecommons.org/ns#"
   xmlns:rdf="http://www.w3.org/1999/02/22-rdf-syntax-ns#"
   xmlns:svg="http://www.w3.org/2000/svg"
   xmlns="http://www.w3.org/2000/svg"
   xmlns:sodipodi="http://sodipodi.sourceforge.net/DTD/sodipodi-0.dtd"
   xmlns:inkscape="http://www.inkscape.org/namespaces/inkscape"
   version="1.1"
   id="svg2"
   viewBox="0 0 400.12142 127.5632"
   height="36.001171mm"
   width="112.92316mm"
   inkscape:version="0.91 r13725"
   sodipodi:docname="plus-button-background.svg">
  <sodipodi:namedview
     pagecolor="#ffffff"
     bordercolor="#666666"
     borderopacity="1"
     objecttolerance="10"
     gridtolerance="10"
     guidetolerance="10"
     inkscape:pageopacity="0"
     inkscape:pageshadow="2"
     inkscape:window-width="1474"
     inkscape:window-height="841"
     id="namedview4271"
     showgrid="false"
     inkscape:zoom="0.61977777"
     inkscape:cx="-40.584502"
     inkscape:cy="31.511968"
     inkscape:window-x="54"
     inkscape:window-y="-8"
     inkscape:window-maximized="1"
     inkscape:current-layer="svg2"
     fit-margin-top="0"
     fit-margin-left="0"
     fit-margin-right="0"
     fit-margin-bottom="0" />
  <defs
     id="defs4" />
  <metadata
     id="metadata7">
    <rdf:RDF>
      <cc:Work
         rdf:about="">
        <dc:format>image/svg+xml</dc:format>
        <dc:type
           rdf:resource="http://purl.org/dc/dcmitype/StillImage" />
        <dc:title></dc:title>
      </cc:Work>
    </rdf:RDF>
  </metadata>
  <rect
     style="opacity:1;fill:#be000f;fill-opacity:1;stroke:none;stroke-width:1.02326608;stroke-miterlimit:4;stroke-dasharray:none;stroke-dashoffset:0;stroke-opacity:1"
     id="rect4136-0-8"
     width="400.12143"
     height="127.56321"
     x="0"
     y="0"
     ry="0" />
  <path
     style="opacity:1;fill:#ff8080;fill-opacity:1;stroke:none;stroke-width:8.30200005;stroke-linejoin:miter;stroke-miterlimit:4;stroke-dasharray:none;stroke-dashoffset:0;stroke-opacity:1"
     d="m 45.737458,96.849256 c -5.603863,-1.4498 -10.329068,-4.20596 -14.788789,-8.62619 -7.119132,-7.056 -10.310839,-14.6071 -10.331853,-24.44358 -0.02063,-9.61331 2.770998,-17.56328 8.433218,-24.01681 12.873766,-14.67283 34.162487,-15.07778 47.238825,-0.89856 6.481399,7.02803 9.425459,14.5753 9.425459,24.16259 0,9.7651 -3.05754,17.50637 -9.679224,24.50659 -8.16392,8.63052 -19.488244,12.11255 -30.297636,9.31596 z m 13.181849,-18.82294 0.181229,-9.10574 8.594166,-0.19202 8.594157,-0.19205 0,-5.16543 0,-5.16543 -8.801364,-0.34435 -8.801362,-0.34438 -0.05747,-2.06616 c -0.03147,-1.1364 -0.09301,-5.24291 -0.136554,-9.12561 l -0.07914,-7.05942 -4.875197,0 -4.875232,0 0,9.29778 0,9.29779 -4.71271,0.087 c -2.592008,0.0478 -6.467823,0.13049 -8.612919,0.18366 l -3.900174,0.0967 -0.189854,5.32612 -0.189841,5.32615 8.802761,0 8.802737,0 0,8.83864 c 0,4.86125 0.206602,9.05752 0.459114,9.32506 0.252536,0.26756 2.5195,0.39668 5.037742,0.28697 l 4.578605,-0.19949 0.181251,-9.10574 z"
     id="path5606"
     inkscape:connector-curvature="0" />
</svg>
