<?xml version="1.0" encoding="UTF-8" standalone="no"?>
<!-- Created with Inkscape (http://www.inkscape.org/) -->

<svg
   xmlns:dc="http://purl.org/dc/elements/1.1/"
   xmlns:cc="http://creativecommons.org/ns#"
   xmlns:rdf="http://www.w3.org/1999/02/22-rdf-syntax-ns#"
   xmlns:svg="http://www.w3.org/2000/svg"
   xmlns="http://www.w3.org/2000/svg"
   xmlns:sodipodi="http://sodipodi.sourceforge.net/DTD/sodipodi-0.dtd"
   xmlns:inkscape="http://www.inkscape.org/namespaces/inkscape"
   width="129.65964mm"
   height="120.58538mm"
   viewBox="0 0 459.42391 427.27103"
   id="svg4231"
   version="1.1"
   inkscape:version="0.91 r13725"
   sodipodi:docname="search-icon.svg">
  <defs
     id="defs4233" />
  <sodipodi:namedview
     id="base"
     pagecolor="#ffffff"
     bordercolor="#666666"
     borderopacity="1.0"
     inkscape:pageopacity="0.0"
     inkscape:pageshadow="2"
     inkscape:zoom="0.35"
     inkscape:cx="-193.85948"
     inkscape:cy="19.349797"
     inkscape:document-units="px"
     inkscape:current-layer="layer1"
     showgrid="false"
     fit-margin-top="0"
     fit-margin-left="0"
     fit-margin-right="0"
     fit-margin-bottom="0"
     inkscape:window-width="1474"
     inkscape:window-height="841"
     inkscape:window-x="54"
     inkscape:window-y="-8"
     inkscape:window-maximized="1" />
  <metadata
     id="metadata4236">
    <rdf:RDF>
      <cc:Work
         rdf:about="">
        <dc:format>image/svg+xml</dc:format>
        <dc:type
           rdf:resource="http://purl.org/dc/dcmitype/StillImage" />
        <dc:title></dc:title>
      </cc:Work>
    </rdf:RDF>
  </metadata>
  <g
     inkscape:label="Layer 1"
     inkscape:groupmode="layer"
     id="layer1"
     transform="translate(-147.43091,-124.44098)">
    <path
       style="opacity:1;fill:#ff8080;fill-opacity:1;stroke:none;stroke-width:2;stroke-miterlimit:4;stroke-dasharray:none;stroke-dashoffset:0;stroke-opacity:1"
       d="m 474.44811,472.49955 -60.52574,-54.90526 -43.04706,13.05184 c -100.653,30.51798 -204.06365,-39.14285 -204.06365,-137.46393 0,-49.86344 29.77374,-100.04688 74.20298,-125.06877 74.61264,-42.02062 191.31227,-13.26294 227.39995,56.03696 17.63652,33.86767 20.36761,100.5505 5.17758,126.41441 -9.03713,15.38732 -2.89225,24.25423 51.28711,74.00649 61.83495,56.78226 71.07006,73.76868 50.36446,92.63667 -20.78178,18.93742 -40.06179,10.38565 -100.79563,-44.70841 z M 396.20497,354.0588 c 35.27579,-32.14503 41.16362,-65.75051 18.51296,-105.66478 -35.08088,-61.8182 -143.68399,-61.8182 -178.76481,0 -22.65072,39.91427 -16.76289,73.51975 18.5129,105.66478 25.99141,23.68469 38.76243,28.89098 70.86947,28.89098 32.10704,0 44.87807,-5.20629 70.86948,-28.89098 z"
       id="path4280"
       inkscape:connector-curvature="0" />
    <path
       style="opacity:1;fill:#ff8080;fill-opacity:1;stroke:none;stroke-width:2.01999998;stroke-miterlimit:4;stroke-dasharray:none;stroke-dashoffset:0;stroke-opacity:1"
       d="m 19.376796,365.10177 c -6.02134,-4.2896 -9.07598,-9.3767 -9.5181903,-15.8512 -0.3364,-4.92531 -0.005,-6.10728 4.9908003,-17.79612 5.24093,-12.26254 5.35863,-12.70896 5.71577,-21.67628 0.3071,-7.71098 0.0698,-10.0943 -1.50379,-15.10211 -1.92839,-6.13702 -6.46188,-13.39969 -10.4253303,-16.70146 -2.76093,-2.3 -11.65239,-6.69643 -12.25415,-6.05912 -0.23901,0.25313 0.55522,2.04418 1.76494,3.98015 10.37611,16.60529 7.46638,40.10213 -6.69969,54.10182 -14.2006097,14.03377 -34.1147397,15.95695 -50.3264197,4.86004 -6.588,-4.50948 -10.87785,-9.82293 -14.66571,-18.16506 -2.73353,-6.02017 -3.09869,-7.68641 -3.39465,-15.48991 -0.26551,-7.00093 0.0198,-9.96615 1.43128,-14.87425 4.17411,-14.51459 15.24292,-25.58726 29.51358,-29.5238 9.24056,-2.54898 17.83632,-1.48526 28.06195,3.47264 2.6711,1.29509 6.05429,2.36068 7.51822,2.36804 4.2854997,0.0214 12.9774397,2.48882 17.7050497,5.02594 12.4990703,6.7078 21.1072903,23.08974 21.1072903,40.16847 0,8.69774 -1.60441,14.92898 -6.99739,27.1767 -2.66843,6.06015 -4.42677,11.30165 -4.43442,13.21878 -0.0163,4.09837 2.83499,8.32433 7.62077,11.29453 4.03378,2.5036 5.40508,5.1146 3.77716,7.1919 -1.62203,2.0699 -4.54845,1.5425 -8.98707,-1.6197 z m -64.51763,-36.21758 c 3.62586,-3.83996 2.27303,-13.29009 -2.27126,-15.86573 -2.54917,-1.44483 -8.83634,-0.23076 -11.53477,2.22739 -2.54474,2.31815 -3.03628,6.63554 -1.04732,9.19905 1.97595,2.54671 8.61973,6.65043 10.76686,6.65043 1.09925,0 2.93818,-0.99501 4.08649,-2.21114 z m 25.61635,0.33928 c 4.37327,-2.24207 7.94384,-6.47054 7.94384,-9.40749 0,-1.17301 -0.91923,-3.2645 -2.04274,-4.6478 -1.82611,-2.24836 -2.60419,-2.51638 -7.33773,-2.52753 -4.7229,-0.0112 -5.47585,0.24198 -6.9686,2.34271 -1.10495,1.55497 -1.71865,3.95287 -1.80624,7.05757 -0.11634,4.1236 0.1611,4.97029 2.25393,6.8784 2.90409,2.64784 3.35266,2.66496 7.95754,0.30414 z m -12.48431,-26.69072 c 2.93956,-3.95773 0.19544,-10.17336 -4.49142,-10.17336 -2.61292,0 -5.70217,3.50137 -5.70217,6.46288 0,5.80532 6.79939,8.28032 10.19359,3.71048 z m -25.07916,-3.20386 c 3.11347,-1.6266 5.52893,-4.55593 5.52893,-6.70503 0,-8.16909 -8.86574,-15.22749 -13.02009,-10.3659 -2.15938,2.527 -3.99199,7.91398 -3.99199,11.73455 0,6.34306 5.05756,8.6934 11.48315,5.33638 z m 51.3997997,-1.23556 c 2.10085,-2.82851 2.12312,-3.22165 0.50858,-8.97944 -2.40131,-8.5636 -7.5274797,-11.01435 -12.3517597,-5.90521 -2.5914,2.74442 -4.61779,8.90722 -3.73233,11.35101 1.00357,2.76965 6.44454,5.9072 10.24404,5.9072 2.8420097,0 3.9274397,-0.48321 5.3314697,-2.37356 z M -33.174014,279.68419 c 6.29062,-4.11741 8.18938,-10.82891 4.04128,-14.28446 -2.77182,-2.30909 -11.65159,-2.63821 -14.4844,-0.53686 -5.01614,3.72095 -1.9742,12.28014 5.66777,15.94755 1.82329,0.87502 1.65843,0.9139 4.77535,-1.12623 z"
       id="path4193"
       inkscape:connector-curvature="0"
       inkscape:transform-center-x="34.285714"
       inkscape:transform-center-y="-8.5714286" />
  </g>
</svg>
