<?xml version="1.0" encoding="UTF-8" standalone="no"?>
<svg
   xmlns:dc="http://purl.org/dc/elements/1.1/"
   xmlns:cc="http://creativecommons.org/ns#"
   xmlns:rdf="http://www.w3.org/1999/02/22-rdf-syntax-ns#"
   xmlns:svg="http://www.w3.org/2000/svg"
   xmlns="http://www.w3.org/2000/svg"
   xmlns:sodipodi="http://sodipodi.sourceforge.net/DTD/sodipodi-0.dtd"
   xmlns:inkscape="http://www.inkscape.org/namespaces/inkscape"
   version="1.1"
   id="svg2"
   viewBox="0 0 396.44354 380.78164"
   height="107.46504mm"
   width="111.88518mm"
   inkscape:version="0.91 r13725"
   sodipodi:docname="settings-icon.svg">
  <sodipodi:namedview
     pagecolor="#ffffff"
     bordercolor="#666666"
     borderopacity="1"
     objecttolerance="10"
     gridtolerance="10"
     guidetolerance="10"
     inkscape:pageopacity="0"
     inkscape:pageshadow="2"
     inkscape:window-width="1474"
     inkscape:window-height="841"
     id="namedview4271"
     showgrid="false"
     inkscape:zoom="0.61977777"
     inkscape:cx="198.22177"
     inkscape:cy="190.39082"
     inkscape:window-x="54"
     inkscape:window-y="-8"
     inkscape:window-maximized="1"
     inkscape:current-layer="svg2" />
  <defs
     id="defs4" />
  <metadata
     id="metadata7">
    <rdf:RDF>
      <cc:Work
         rdf:about="">
        <dc:format>image/svg+xml</dc:format>
        <dc:type
           rdf:resource="http://purl.org/dc/dcmitype/StillImage" />
        <dc:title></dc:title>
      </cc:Work>
    </rdf:RDF>
  </metadata>
  <g
     id="g4257"
     transform="matrix(3.4086899,0,0,3.3101547,-2457.7702,-2231.8943)">
    <path
       inkscape:connector-curvature="0"
       id="path4251"
       d="m 763.90577,763.86472 c -0.8066,-0.9821 -1.6889,-3.3272 -1.9606,-5.2112 -0.2717,-1.884 -1.4583,-3.8734 -2.6369,-4.4208 -1.1786,-0.5474 -3.5225,-1.7018 -5.2087,-2.5653 -2.4974,-1.2789 -3.5317,-1.0552 -5.5785,1.2065 -3.1509,3.4817 -6.6498,3.5408 -9.7057,0.1641 -2.9254,-3.2325 -3.0265,-7.1451 -0.2636,-10.1981 3.0874,-3.4115 -1.2798,-12.9037 -5.9368,-12.9037 -1.8944,0 -4.229,-1.5081 -5.6193,-3.63 -3.2727,-4.9947 -0.8214,-10.3861 5.2767,-11.6057 2.4334,-0.4867 4.7374,-1.9185 5.1201,-3.1817 0.3827,-1.2633 1.3356,-3.4835 2.1176,-4.9338 1.0439,-1.9359 0.8263,-3.2949 -0.8185,-5.1124 -2.8668,-3.1678 -2.8649,-7.8508 0,-10.7201 2.8773,-2.8773 6.1446,-2.8523 9.3757,0.072 2.3127,2.093 3.0823,2.1093 7.9696,0.1691 4.1127,-1.6327 5.52,-3.0631 5.8693,-5.9654 1.0182,-8.4598 13.7257,-8.0943 15.4334,0.444 1.2445,6.2225 9.7856,9.525 13.3929,5.1786 2.4032,-2.8958 6.1965,-2.6992 9.0643,0.4696 2.9817,3.2947 3.0159,7.1567 0.092,10.3875 -3.3448,3.6959 -0.01,12.7143 4.702,12.7143 3.5217,0 8.9981,4.5639 8.9996,7.5 6e-4,1.2497 -2.0829,1.6412 -6.9414,1.3043 -5.953,-0.4129 -7.3294,0.011 -9.6583,2.9713 -3.9486,5.0199 -6.2574,3.4 -6.2637,-4.3947 -0.014,-17.5979 -17.9824,-27.3034 -33.6018,-18.1498 -13.6231,7.9837 -13.4313,28.106 0.3559,37.3309 2.8974,1.9386 6.3705,2.6106 12.8941,2.4948 4.9107,-0.087 8.9286,0.131 8.9286,0.4847 0,0.3536 -1.9866,2.3145 -4.4145,4.3575 -4.4912,3.7791 -5.0882,8.0947 -2.0789,15.0296 0.896,2.0648 0.3426,2.5 -3.1789,2.5 -2.345,0 -4.9236,-0.8036 -5.7302,-1.7858 z"
       style="opacity:1;fill:#ff8080;fill-opacity:1;stroke:#ff8080;stroke-width:2.85714293;stroke-miterlimit:4;stroke-dasharray:none;stroke-dashoffset:0;stroke-opacity:1" />
    <path
       inkscape:connector-curvature="0"
       id="path4253"
       d="m 763.62217,732.44502 c -7.2487,-3.7863 -8.7172,-14.1297 -2.8684,-20.2036 3.7144,-3.8575 13.5555,-3.6534 17.5732,0.3643 4.061,4.061 4.1841,13.334 0.2296,17.2885 -3.7075,3.7075 -10.4992,4.8675 -14.9344,2.5508 z"
       style="opacity:1;fill:#ff8080;fill-opacity:1;stroke:#ff8080;stroke-width:2.85714293;stroke-miterlimit:4;stroke-dasharray:none;stroke-dashoffset:0;stroke-opacity:1" />
    <path
       inkscape:connector-curvature="0"
       id="path4255"
       d="m 802.45107,783.93622 c -0.9428,-0.9429 -1.7142,-2.8086 -1.7142,-4.146 0,-2.7609 -7.9931,-6.2313 -9.3385,-4.0544 -1.3512,2.1863 -5.9978,1.5318 -6.9619,-0.9807 -0.4905,-1.2782 -0.1847,-3.1759 0.6795,-4.2172 2.3003,-2.7717 0.3028,-7.3988 -4.1064,-9.512 -4.8389,-2.3193 -5.0033,-6.856 -0.3329,-9.1845 4.4148,-2.201 6.2546,-6.9101 4.1997,-10.7497 -2.273,-4.2473 1.8136,-8.3001 5.8363,-5.7879 3.767,2.3526 10.0242,-0.024 10.0242,-3.8074 0,-3.4234 5.0724,-5.2999 7.9257,-2.9319 1.1408,0.9468 2.0743,2.8535 2.0743,4.2371 0,3.2248 4.9985,4.5423 9.4822,2.4994 2.7955,-1.2737 3.9351,-1.1311 5.791,0.7247 2.0743,2.0744 2.0901,2.6479 0.1546,5.6105 -2.6882,4.1146 -0.7506,9.3776 3.6855,10.0105 2.0952,0.299 3.1674,1.6286 3.4767,4.3111 0.3658,3.1724 -0.2402,4.0513 -3.3281,4.8263 -4.8496,1.2172 -6.8705,6.1226 -3.9066,9.4824 1.7728,2.0096 1.8443,2.88 0.3812,4.6429 -2.1084,2.5405 -5.9371,2.8263 -8.1546,0.6087 -1.9719,-1.9718 -7.5819,0.7304 -7.5819,3.652 0,2.0897 -3.7472,6.4804 -5.5307,6.4804 -0.5724,0 -1.8122,-0.7715 -2.7551,-1.7143 z m 7.3713,-17.3957 c 6.2947,-2.6301 9.1237,-9.1523 6.6061,-15.2303 -3.1391,-7.5785 -12.1922,-9.5379 -19.0704,-4.1275 -7.8062,6.1404 -3.6488,18.1333 7.3532,21.2121 0.2217,0.062 2.5216,-0.7724 5.1111,-1.8543 z"
       style="opacity:1;fill:#ff8080;fill-opacity:1;stroke:#ff8080;stroke-width:2.85714293;stroke-miterlimit:4;stroke-dasharray:none;stroke-dashoffset:0;stroke-opacity:1" />
  </g>
</svg>
