<?xml version="1.0" encoding="UTF-8" standalone="no"?>
<svg
   xmlns:dc="http://purl.org/dc/elements/1.1/"
   xmlns:cc="http://creativecommons.org/ns#"
   xmlns:rdf="http://www.w3.org/1999/02/22-rdf-syntax-ns#"
   xmlns:svg="http://www.w3.org/2000/svg"
   xmlns="http://www.w3.org/2000/svg"
   xmlns:sodipodi="http://sodipodi.sourceforge.net/DTD/sodipodi-0.dtd"
   xmlns:inkscape="http://www.inkscape.org/namespaces/inkscape"
   version="1.1"
   id="svg2"
   viewBox="0 0 396.44354 380.78164"
   height="107.46504mm"
   width="111.88518mm"
   inkscape:version="0.48.4 r9939"
   sodipodi:docname="user-icon.svg">
  <sodipodi:namedview
     pagecolor="#ffffff"
     bordercolor="#666666"
     borderopacity="1"
     objecttolerance="10"
     gridtolerance="10"
     guidetolerance="10"
     inkscape:pageopacity="0"
     inkscape:pageshadow="2"
     inkscape:window-width="1855"
     inkscape:window-height="1056"
     id="namedview3198"
     showgrid="false"
     inkscape:zoom="0.61977777"
     inkscape:cx="198.22177"
     inkscape:cy="190.39082"
     inkscape:window-x="65"
     inkscape:window-y="24"
     inkscape:window-maximized="1"
     inkscape:current-layer="svg2" />
  <defs
     id="defs4" />
  <metadata
     id="metadata7">
    <rdf:RDF>
      <cc:Work
         rdf:about="">
        <dc:format>image/svg+xml</dc:format>
        <dc:type
           rdf:resource="http://purl.org/dc/dcmitype/StillImage" />
        <dc:title></dc:title>
      </cc:Work>
    </rdf:RDF>
  </metadata>
  <g
     id="g3071"
     transform="matrix(0.75264434,0,0,1.0724356,558.29051,-7.2704476)"
     style="fill:#ff8080;fill-opacity:1">
    <path
       transform="translate(147.4309,124.44098)"
       inkscape:connector-curvature="0"
       id="path3061"
       d="m -528.39583,102.09275 c -11.11168,-5.793572 -22.21905,-11.046616 -24.68304,-11.673425 -2.5213,-0.641389 -5.99137,-4.309065 -7.9369,-8.388883 -3.45235,-7.239658 -3.4489,-7.259271 2.61527,-14.853533 17.46045,-21.866027 23.88399,-42.232706 23.84446,-75.6020836 l -0.0279,-23.5510684 7.36905,-2.207822 c 14.15122,-4.239807 28.43652,-2.790451 42.13626,4.275057 41.68944,21.5009171 50.09442,86.802422 15.95772,123.981697 -9.30266,10.131791 -25.63463,19.145371 -34.02112,18.776181 -2.77792,-0.12228 -14.14213,-4.96254 -25.25381,-10.75612 z"
       style="fill:#ff8080;fill-opacity:1" />
    <path
       transform="translate(147.4309,124.44098)"
       inkscape:connector-curvature="0"
       id="path3063"
       d="m -440.51256,217.23337 c 0,-10.8974 -8.49591,-35.00699 -18.19339,-51.62901 -5.31148,-9.10415 -15.55447,-21.85801 -25.74943,-32.06138 l -16.92939,-16.94335 12.21052,1.38146 c 42.609,4.82066 86.03197,34.26949 104.81246,71.08229 3.44593,6.75458 10.5193,29.57678 10.5193,33.94048 0,0.67299 -15.00077,1.22361 -33.33504,1.22361 l -33.33503,0 0,-6.9941 z"
       style="fill:#ff8080;fill-opacity:1" />
    <path
       transform="translate(147.4309,124.44098)"
       inkscape:connector-curvature="0"
       id="path3065"
       d="m -800.71641,216.65133 c 8.30477,-53.46879 58.07978,-105.14591 117.89176,-122.396915 9.37644,-2.704366 22.85496,-5.581169 29.95226,-6.392906 l 12.90418,-1.475883 -15.93464,-7.532184 c -24.88515,-11.763017 -40.87494,-31.661496 -48.27636,-60.077459 -3.89554,-14.9559855 -3.85533,-43.006186 0.0833,-58.127693 6.79758,-26.097673 24.89417,-49.234748 47.02735,-60.125994 11.89611,-5.853816 15.30577,-6.602396 29.6413,-6.507646 13.48195,0.0891 18.18003,1.06104 28.01073,5.79485 51.23229,24.670005 67.57056,101.08720093 32.4999,152.008235 -11.25669,16.344218 -19.91164,22.604394 -44.31173,32.050975 -3.1549,1.22143 -1.82634,1.945208 6.06091,3.301873 42.45181,7.302025 70.55825,19.438887 98.10487,42.363407 26.62138,22.15453 47.08596,56.14509 51.49174,85.52495 l 1.37491,9.16853 -173.84861,0 -173.84862,0 1.17673,-7.57614 0,0 z"
       style="fill:#ff8080;fill-opacity:1" />
    <path
       transform="translate(147.4309,124.44098)"
       inkscape:connector-curvature="0"
       id="path3067"
       d="m -759.73385,109.20273 c -14.53755,-4.42212 -32.09511,-20.121892 -39.93128,-35.706109 -17.90855,-35.61566 -6.14494,-84.77199 24.79208,-103.598114 15.35677,-9.345067 27.92771,-11.60235 41.9357,-7.530119 l 11.40184,3.314606 -1.10947,16.64023 c -1.90717,28.604185 7.0614,58.433781 24.33327,80.932848 l 7.48047,9.74438 -3.63511,6.164844 c -2.74146,4.649282 -8.02368,8.051651 -21.48646,13.839803 -9.81825,4.221229 -21.23133,10.017281 -25.36241,12.880121 -7.85933,5.44653 -10.09549,5.8493 -18.41863,3.31751 l 0,0 z"
       style="fill:#ff8080;fill-opacity:1" />
    <path
       transform="translate(147.4309,124.44098)"
       inkscape:connector-curvature="0"
       id="path3069"
       d="m -880.1793,212.6571 c 1.80029,-13.13462 11.43357,-32.89128 23.27317,-47.73044 22.99283,-28.81804 50.49926,-43.4095 95.71561,-50.77466 l 7.62162,-1.24146 -17.72314,17.87364 c -24.81408,25.0248 -37.72166,48.21183 -43.3476,77.86911 l -2.57114,13.55388 -32.13876,0 -32.13875,0 1.30899,-9.55007 z"
       style="fill:#ff8080;fill-opacity:1" />
  </g>
</svg>
