<?xml version="1.0" encoding="UTF-8" standalone="no"?>
<svg
   xmlns:dc="http://purl.org/dc/elements/1.1/"
   xmlns:cc="http://creativecommons.org/ns#"
   xmlns:rdf="http://www.w3.org/1999/02/22-rdf-syntax-ns#"
   xmlns:svg="http://www.w3.org/2000/svg"
   xmlns="http://www.w3.org/2000/svg"
   xmlns:sodipodi="http://sodipodi.sourceforge.net/DTD/sodipodi-0.dtd"
   xmlns:inkscape="http://www.inkscape.org/namespaces/inkscape"
   width="111.88518mm"
   height="107.46504mm"
   viewBox="0 0 396.44354 380.78164"
   id="svg2"
   version="1.1"
   inkscape:version="0.48.4 r9939"
   sodipodi:docname="star-icon.svg">
  <sodipodi:namedview
     pagecolor="#ffffff"
     bordercolor="#666666"
     borderopacity="1"
     objecttolerance="10"
     gridtolerance="10"
     guidetolerance="10"
     inkscape:pageopacity="0"
     inkscape:pageshadow="2"
     inkscape:window-width="1855"
     inkscape:window-height="1056"
     id="namedview3024"
     showgrid="false"
     inkscape:zoom="1.1935974"
     inkscape:cx="275.64589"
     inkscape:cy="76.607721"
     inkscape:window-x="65"
     inkscape:window-y="24"
     inkscape:window-maximized="1"
     inkscape:current-layer="svg2" />
  <defs
     id="defs4" />
  <metadata
     id="metadata7">
    <rdf:RDF>
      <cc:Work
         rdf:about="">
        <dc:format>image/svg+xml</dc:format>
        <dc:type
           rdf:resource="http://purl.org/dc/dcmitype/StillImage" />
        <dc:title></dc:title>
      </cc:Work>
    </rdf:RDF>
  </metadata>
  <path
     d="M 760.00465,407.56662 644.18183,348.26611 530.19352,411.0938 550.19578,281.42113 455.85937,191.25174 584.04423,170.41014 639.72946,51.854673 698.94979,168.64653 827.70156,185.5446 736.11689,278.56756 z"
     id="path4416"
     style="fill:#be000f;fill-opacity:1;stroke:none"
     inkscape:connector-curvature="0" />
  <path
     style="fill:#be000f;fill-opacity:1;stroke:#ffffff;stroke-width:0.58613473;stroke-opacity:1"
     d="m 192.92869,368.06374 c -7.58077,-0.17315 -21.05609,-1.33625 -22.17858,-1.91432 -0.52145,-0.26854 -4.55053,-1.06399 -8.95349,-1.76769 -4.40296,-0.70368 -8.13881,-1.46375 -8.30189,-1.68903 -0.16306,-0.22528 -2.83153,-1.01234 -5.9299,-1.74903 -3.09839,-0.73668 -5.76685,-1.51005 -5.92992,-1.7186 -0.16308,-0.20855 -2.29785,-0.98561 -4.74394,-1.72678 -2.44609,-0.74116 -4.58085,-1.53794 -4.74393,-1.77061 -0.16307,-0.23264 -2.09772,-1.01439 -4.29919,-1.73719 -2.20148,-0.72281 -4.00269,-1.47905 -4.00269,-1.68054 0,-0.20151 -1.60108,-0.98769 -3.55796,-1.74709 -1.95686,-0.7594 -3.55794,-1.5704 -3.55794,-1.80225 0,-0.23183 -1.60734,-1.0088 -3.57186,-1.72659 -1.96451,-0.71779 -3.76573,-1.59713 -4.00269,-1.95409 -0.23696,-0.35697 -1.76507,-1.27879 -3.39579,-2.04853 -1.63074,-0.76972 -3.17836,-1.74714 -3.43918,-2.17203 -0.26081,-0.42491 -0.82225,-0.77255 -1.24763,-0.77255 -0.4254,0 -1.427079,-0.5866 -2.225992,-1.30356 -0.7989,-0.71695 -2.141579,-1.65754 -2.983734,-2.09019 -0.842156,-0.43265 -2.562375,-1.66603 -3.822721,-2.74084 -1.260335,-1.07481 -2.61569,-1.95918 -3.011899,-1.9653 -0.396209,-0.006 -1.006004,-0.53253 -1.355092,-1.16983 -0.349101,-0.63729 -1.017612,-1.15871 -1.485601,-1.15871 -0.467976,0 -1.44273,-0.78214 -2.166118,-1.73807 -0.723387,-0.95594 -1.598629,-1.73835 -1.944981,-1.73868 -0.942735,-6.9e-4 -15.751009,-13.62242 -15.751009,-14.48871 0,-0.2355 -1.2008,-1.56515 -2.668453,-2.95478 -1.467665,-1.38963 -2.668465,-2.74283 -2.668465,-3.0071 0,-0.26425 -0.800546,-1.13859 -1.778985,-1.94296 -0.978427,-0.80437 -1.778972,-1.76767 -1.778972,-2.14067 0,-0.37298 -0.533693,-1.0038 -1.185974,-1.4018 -0.652293,-0.39799 -1.1911,-1.0473 -1.197367,-1.44291 -0.006,-0.39561 -0.945497,-1.76213 -2.087195,-3.03671 -1.141699,-1.27459 -2.402525,-3.03439 -2.801844,-3.91067 -0.399306,-0.87627 -0.922302,-1.59323 -1.162203,-1.59323 -0.239901,0 -0.968163,-1.01879 -1.618367,-2.26398 -0.650204,-1.2452 -1.38945,-2.35322 -1.642773,-2.46228 -0.253335,-0.10909 -1.127712,-1.50183 -1.943072,-3.09506 -0.815372,-1.59324 -1.788469,-3.09019 -2.162432,-3.32658 -0.373976,-0.23638 -1.160511,-1.73547 -1.747868,-3.3313 -0.587368,-1.59583 -1.251066,-2.90151 -1.474904,-2.90151 -0.223837,0 -1.025895,-1.49909 -1.782358,-3.33131 -0.75645,-1.83221 -1.698309,-3.65325 -2.093006,-4.04673 -0.394696,-0.39348 -1.314045,-2.47917 -2.04298,-4.63485 -0.728946,-2.15569 -1.518387,-4.04979 -1.75429,-4.20911 -0.235915,-0.15933 -1.059498,-2.24501 -1.830199,-4.63487 -0.770688,-2.38983 -1.582196,-4.47687 -1.803344,-4.63785 -0.221137,-0.16097 -0.994106,-2.76808 -1.717698,-5.79357 -0.723592,-3.02549 -1.512421,-5.63125 -1.752946,-5.79057 -0.240525,-0.15932 -1.033927,-3.80928 -1.763125,-8.111 -0.729199,-4.30172 -1.554343,-8.34275 -1.833669,-8.98004 -0.962412,-2.19581 -1.788997,-14.38179 -1.792551,-26.42706 -0.0036,-12.01231 0.942316,-26.34773 1.811399,-27.45314 0.250514,-0.31865 0.632292,-2.01328 0.848399,-3.76583 0.54517,-4.42118 2.321609,-12.97472 2.767436,-13.32521 0.202661,-0.15933 0.848302,-2.37537 1.434758,-4.92454 0.586445,-2.54917 1.397122,-5.16469 1.801495,-5.81226 0.404385,-0.64757 1.29341,-3.10445 1.975608,-5.45972 0.682222,-2.35527 1.471374,-4.43253 1.753689,-4.61616 0.282304,-0.18362 0.669017,-0.85527 0.859372,-1.49256 0.712679,-2.38617 2.999749,-8.12175 3.349762,-8.40069 0.199936,-0.15931 1.025032,-1.72358 1.833549,-3.47613 0.808505,-1.75256 1.63946,-3.31683 1.846562,-3.47615 0.207102,-0.15932 0.97659,-1.65841 1.709979,-3.33131 0.733388,-1.67289 1.530656,-3.04162 1.771709,-3.04162 0.241053,0 1.071732,-1.30355 1.84595,-2.89678 0.774218,-1.593231 1.584572,-2.896787 1.800786,-2.896787 0.216227,0 0.957238,-1.057396 1.646723,-2.349766 0.689473,-1.292371 1.783799,-2.905801 2.43183,-3.585388 0.648043,-0.679587 1.178255,-1.562748 1.178255,-1.962571 0,-0.399811 0.468132,-1.067601 1.040302,-1.483984 0.57217,-0.416372 1.776764,-1.865068 2.676881,-3.219307 0.900105,-1.354251 1.899625,-2.462272 2.221149,-2.462272 0.321513,0 0.590766,-0.325892 0.59833,-0.724193 0.0132,-0.693552 1.143211,-2.06118 6.676271,-8.080021 5.440055,-5.917694 17.311294,-17.266864 18.061129,-17.266864 0.147953,0 1.510752,-1.07166 3.028455,-2.381455 1.517702,-1.309795 3.35987,-2.606905 4.093691,-2.882449 0.733832,-0.275543 1.334238,-0.742401 1.334238,-1.037457 0,-0.295056 1.000673,-1.110593 2.223719,-1.812305 1.223034,-0.701706 2.437112,-1.639945 2.697926,-2.084973 0.260814,-0.445027 0.822251,-0.809146 1.247645,-0.809146 0.425382,0 1.454519,-0.616697 2.286963,-1.370446 0.832443,-0.753742 2.748527,-1.954544 4.257957,-2.668448 1.50944,-0.713911 3.06879,-1.609815 3.46524,-1.990904 0.39645,-0.38109 2.05504,-1.313167 3.68577,-2.071287 1.63072,-0.75812 3.09838,-1.54659 3.26145,-1.752151 0.16307,-0.205561 1.83086,-0.988471 3.7062,-1.739793 1.87534,-0.751321 3.4097,-1.546997 3.4097,-1.768151 0,-0.221163 1.66778,-1.00399 3.7062,-1.739621 2.03841,-0.735631 3.83961,-1.510846 4.00269,-1.722698 0.16307,-0.211854 2.16441,-0.980015 4.44744,-1.70703 2.28301,-0.727015 4.41778,-1.522649 4.74393,-1.768083 0.32615,-0.245434 2.86119,-1.043869 5.63342,-1.774301 2.77224,-0.73043 5.17816,-1.519681 5.3465,-1.753885 0.35035,-0.487438 14.91151,-3.402988 16.99556,-3.402988 0.75767,0 1.3776,-0.222772 1.3776,-0.495058 0,-1.439283 25.84361,-2.91677 40.91643,-2.339205 10.58785,0.405706 22.53369,1.65411 22.53369,2.354881 0,0.263663 0.6004,0.478276 1.33423,0.476921 2.00363,-0.0035 16.70716,3.028958 17.0485,3.516327 0.16308,0.232834 2.5647,1.022383 5.33692,1.754543 2.77224,0.732167 5.17386,1.502989 5.33693,1.712948 0.16308,0.209953 2.23114,0.962774 4.59569,1.672944 2.36455,0.71017 4.29919,1.505964 4.29919,1.768429 0,0.262466 1.49314,0.936069 3.31808,1.496884 1.82495,0.560814 3.62616,1.31213 4.0027,1.669576 0.37653,0.357446 2.15227,1.259138 3.94606,2.003753 1.7938,0.74462 3.39487,1.537654 3.55795,1.762309 0.16308,0.224653 1.63073,1.039 3.26145,1.809657 1.63073,0.770663 3.09839,1.552309 3.26147,1.736999 0.16306,0.184691 1.76414,1.09742 3.55794,2.028288 1.7938,0.930868 3.35278,1.894991 3.4644,2.142492 0.11165,0.247502 1.24571,0.96976 2.52021,1.60501 1.27451,0.635251 2.31728,1.410409 2.31728,1.722581 0,0.312166 0.33355,0.567786 0.74123,0.568035 0.40768,2.49e-4 1.79039,0.912736 3.07268,2.027745 1.28229,1.115021 2.48582,2.027299 2.67452,2.027299 0.18869,0 1.01617,0.586594 1.83881,1.303556 0.82265,0.716951 2.9547,2.466274 4.73787,3.887386 8.14778,6.493368 17.2092,15.579872 24.88634,24.955192 1.14152,1.394001 2.47575,2.955503 2.96497,3.469976 1.52119,1.599719 3.55795,4.547046 3.55795,5.148574 0,0.315709 0.3542,0.78251 0.78712,1.03733 0.43292,0.254821 1.43359,1.636506 2.22373,3.070419 0.79011,1.433901 1.72393,2.790331 2.07513,3.01427 0.35121,0.223938 1.12556,1.462316 1.7208,2.751943 0.59523,1.28964 1.25757,2.34478 1.47186,2.34478 0.2143,0 1.04101,1.43127 1.83715,3.1806 0.79615,1.74932 1.60752,3.18323 1.80305,3.18646 0.19551,0.003 0.99144,1.57014 1.7687,3.48202 0.77727,1.91188 1.58544,3.47615 1.79592,3.47615 0.2105,0 0.99876,1.62943 1.75169,3.62098 0.75295,1.99154 1.58055,3.76342 1.83912,3.93751 0.50253,0.33834 3.45941,9.05786 3.45941,10.20143 0,0.37561 0.21225,0.76984 0.47167,0.87606 0.51916,0.21255 3.08627,8.52392 3.08627,9.99217 0,0.50548 0.22936,0.91905 0.50969,0.91905 0.47381,0 3.0555,11.84935 3.05052,14.00113 -10e-4,0.53107 0.23396,1.05249 0.52263,1.15871 1.05803,0.38927 2.46888,18.78998 2.46433,32.14033 -0.002,7.31009 -0.13033,14.0623 -0.28408,15.00493 -0.15376,0.94262 -0.5941,4.64686 -0.97852,8.23162 -0.38443,3.58478 -0.93018,6.51777 -1.2128,6.51777 -0.28259,0 -0.51381,0.56258 -0.51381,1.25017 0,1.99933 -2.46668,14.07378 -2.94021,14.39248 -0.23675,0.15932 -1.03666,2.63607 -1.77758,5.50389 -0.74094,2.86782 -1.53761,5.34457 -1.77037,5.50389 -0.23277,0.15933 -1.16484,2.63608 -2.0713,5.5039 -0.90644,2.86781 -1.82221,5.34457 -2.03504,5.50389 -0.21283,0.15932 -1.03125,1.85394 -1.81873,3.76582 -0.78747,1.91187 -1.61872,3.6065 -1.84724,3.76583 -0.22851,0.15932 -1.03531,1.72358 -1.79289,3.47613 -0.75759,1.75256 -1.54641,3.31683 -1.75292,3.47615 -0.20651,0.15932 -1.02111,1.59323 -1.81021,3.18646 -0.78909,1.59324 -1.80534,3.27751 -2.25833,3.74285 -0.45299,0.46533 -1.19039,1.70371 -1.63868,2.75194 -0.44829,1.04824 -1.02584,1.90589 -1.28342,1.90589 -0.2576,0 -1.12127,1.2995 -1.91927,2.88777 -0.79801,1.5883 -1.6398,2.89184 -1.87067,2.8968 -0.23084,0.006 -1.12346,1.1822 -1.98356,2.61611 -0.86011,1.43391 -1.81192,2.60711 -2.11515,2.60711 -0.30322,0 -0.78206,0.58659 -1.06409,1.30355 -0.28203,0.71695 -1.60965,2.51675 -2.95029,3.99956 -1.34063,1.48281 -2.4375,2.81615 -2.4375,2.96299 0,1.06099 -19.10732,19.46676 -21.64794,20.85313 -0.65023,0.35481 -1.66859,1.24803 -2.26302,1.98494 -0.59442,0.7369 -1.47005,1.33983 -1.94583,1.33983 -0.47578,0 -1.01393,0.37905 -1.1959,0.84233 -0.18195,0.46328 -1.30111,1.40165 -2.48698,2.08525 -1.18589,0.6836 -2.51143,1.73846 -2.94563,2.34412 -0.43421,0.60568 -1.12431,1.10122 -1.53353,1.10122 -0.40922,0 -1.31317,0.51803 -2.00875,1.15117 -0.69559,0.63313 -2.34698,1.7023 -3.66976,2.37593 -1.32279,0.67361 -2.40506,1.39759 -2.40506,1.60885 0,0.21124 -1.40095,1.02297 -3.11321,1.80385 -1.71226,0.78088 -3.30149,1.71108 -3.53162,2.06711 -0.23013,0.35604 -2.03134,1.27326 -4.00269,2.03828 -1.97136,0.76501 -3.58429,1.56071 -3.58429,1.7682 0,0.20749 -1.53436,0.97794 -3.4097,1.7121 -1.87533,0.73418 -3.54611,1.52642 -3.71284,1.76055 -0.28007,0.3933 -4.0232,1.86328 -6.81276,2.67549 -0.65229,0.18992 -1.33835,0.56876 -1.52458,0.84187 -0.18624,0.27312 -2.14631,1.00165 -4.35573,1.61897 -2.20942,0.6173 -4.32525,1.36019 -4.70183,1.65084 -0.37658,0.29066 -3.21974,1.13296 -6.31812,1.87179 -3.09838,0.73885 -5.76685,1.50543 -5.92993,1.70353 -0.36628,0.44496 -10.2636,2.3019 -14.59895,2.73905 -1.75493,0.17697 -3.19079,0.5123 -3.19079,0.74519 0,0.92322 -21.45117,2.16141 -32.91103,1.89966 z m -25.86125,-108.97424 31.89227,-31.17261 31.85562,31.11997 31.85561,31.11998 18.37199,-17.94559 18.37199,-17.9456 -31.89542,-31.11924 -31.89542,-31.11924 31.89108,-31.12179 31.89109,-31.12176 L 281.0405,111.82513 262.67475,93.866641 230.81692,125.00379 198.95909,156.14093 167.10383,124.9886 135.24855,93.836255 117.09404,111.61918 c -9.98499,9.78063 -18.154533,17.95981 -18.154533,18.17599 0,0.21618 14.238113,14.30655 31.640233,31.31195 l 31.64025,30.91891 -31.64025,30.91276 c -17.40212,17.00201 -31.640233,31.09207 -31.640233,31.31124 0,0.21918 1.667793,2.00492 3.706203,3.96831 2.0384,1.96339 6.16297,6.00061 9.1657,8.97159 3.00272,2.97098 8.47308,8.33265 12.15632,11.91484 3.68326,3.58218 7.63079,7.52963 8.77231,8.7721 1.1415,1.24247 2.15639,2.28744 2.25529,2.32213 0.0989,0.0347 14.53136,-13.96457 32.07211,-31.1095 l 0,0 z"
     id="path3126"
     inkscape:connector-curvature="0" />
</svg>
